<mxfile host="app.diagrams.net" agent="Mozilla/5.0 (Macintosh; Intel Mac OS X 10_15_7) AppleWebKit/537.36 (KHTML, like Gecko) Chrome/134.0.0.0 Safari/537.36" version="26.1.3">
  <diagram name="第 1 页" id="QoXYSRZzKHj9qOfMjrQc">
    <mxGraphModel dx="1026" dy="601" grid="1" gridSize="10" guides="1" tooltips="1" connect="1" arrows="1" fold="1" page="1" pageScale="1" pageWidth="827" pageHeight="1169" math="0" shadow="0">
      <root>
        <mxCell id="0" />
        <mxCell id="1" parent="0" />
        <mxCell id="uqpLzge1cSQytIb9NcQr-1" value="&lt;b&gt;&lt;font style=&quot;font-size: 20px;&quot;&gt;MCP Servers&lt;/font&gt;&lt;/b&gt;" style="rounded=0;whiteSpace=wrap;html=1;fillColor=#ffe6cc;strokeColor=#d79b00;" vertex="1" parent="1">
          <mxGeometry x="320" y="120" width="220" height="360" as="geometry" />
        </mxCell>
        <mxCell id="uqpLzge1cSQytIb9NcQr-2" value="" style="shape=image;verticalLabelPosition=bottom;labelBackgroundColor=default;verticalAlign=top;aspect=fixed;imageAspect=0;image=data:image/jpeg,/9j/4AAQSkZJRgABAQAAAQABAAD/4gHYSUNDX1BST0ZJTEUAAQEAAAHIAAAAAAQwAABtbnRyUkdCIFhZWiAH4AABAAEAAAAAAABhY3NwAAAAAAAAAAAAAAAAAAAAAAAAAAAAAAAAAAAAAQAA9tYAAQAAAADTLQAAAAAAAAAAAAAAAAAAAAAAAAAAAAAAAAAAAAAAAAAAAAAAAAAAAAAAAAAAAAAAAAAAAAlkZXNjAAAA8AAAACRyWFlaAAABFAAAABRnWFlaAAABKAAAABRiWFlaAAABPAAAABR3dHB0AAABUAAAABRyVFJDAAABZAAAAChnVFJDAAABZAAAAChiVFJDAAABZAAAAChjcHJ0AAABjAAAADxtbHVjAAAAAAAAAAEAAAAMZW5VUwAAAAgAAAAcAHMAUgBHAEJYWVogAAAAAAAAb6IAADj1AAADkFhZWiAAAAAAAABimQAAt4UAABjaWFlaIAAAAAAAACSgAAAPhAAAts9YWVogAAAAAAAA9tYAAQAAAADTLXBhcmEAAAAAAAQAAAACZmYAAPKnAAANWQAAE9AAAApbAAAAAAAAAABtbHVjAAAAAAAAAAEAAAAMZW5VUwAAACAAAAAcAEcAbwBvAGcAbABlACAASQBuAGMALgAgADIAMAAxADb/2wBDAAYEBQYFBAYGBQYHBwYIChAKCgkJChQODwwQFxQYGBcUFhYaHSUfGhsjHBYWICwgIyYnKSopGR8tMC0oMCUoKSj/2wBDAQcHBwoIChMKChMoGhYaKCgoKCgoKCgoKCgoKCgoKCgoKCgoKCgoKCgoKCgoKCgoKCgoKCgoKCgoKCgoKCgoKCj/wAARCAQ4BaADASIAAhEBAxEB/8QAHQABAAEEAwEAAAAAAAAAAAAAAAgDBQYHAQIECf/EAF4QAQABAwMBAgYHFAcFBQcEAwABAgMEBQYRBxIhCBMxQVFhFCI3cYGRshcYMjVCUlVWcnN0dZOUobGzwdHSFSM0NlRikhYkM4LCJVN2orQ4Q4SV0+HwJkWDo0RjZf/EABwBAQACAwEBAQAAAAAAAAAAAAAFBgMEBwECCP/EAEERAQABAgMEAwwJAgYDAAAAAAABAgMEBREGEiExQVFxExQiMlJhgZGhscHRFRYzNDVCU3KSgvAjQ1Ric+GiwtL/2gAMAwEAAhEDEQA/AIqAAAAAAAAAAAAAAAAAAAAAAAAAAAAAAAAAAAAAAAAAAAAAAAAAAAAAAAAAAAAAAAAAAAAAAAAAAAAAAAAAAAAAAAAAAAAAAAAAAAAAAAAAAAAAAAAAAAAAAAAAAAAAAAAAAAAAAAAAAAAAAAAAAAAAAAAAAAAAAAAAAAAAAAAAAAAAAAAAAAAAAAAAAAAAAAAAAAAAAAAAAAAAAAAAAAAAAAAAAAAAAAAAAAAAAAAAAAAAAAAAAAAAAAAAAAAAAAAAAAAAAAAAAAAAAAAAAAAAAAAAAAAAAAAAAAAAAAAAAAAAAAAAAAAAAAAAAAAAAAAAAAAAAAAAAAAAAAAAAAAAAAAAAAAAAAAAAAAAAAAAAAAAAAAAAAAAAAAAAAAAAAAAAAAAAAAAAAAAAAAAAAAAAAAAAAAAAAAAAAAAAAAAAAAAAAAAAAAAAAAAAAAAAAAAAAAAAAAAAAAAAAAAAAAAAAAAAAAAAAAAAAAAAAAAAAAAAAAAAAAAAAAAAAAAAAAAAAAAAAAAAAAAAAAAAAAAAAAAAAAAAAAAAAAAAAAAAAAAAAAAAAAAAAAAAAAAAAAAAAAAAAAAAAAAAAAAAAAAAAAAAAAAAAAAAAAAAAAAAAAAAAAAAAAAAAAAAAAAAAAAAAAAAAAAAAAAAAAAAAAAAAAAAAAAAAAAAAAAAAAAAAAAAAAAAAAAAAAAAAAAAAAAAAAAAAAAAAAAAAAAAAAAAAAAAAAAAAAAAAAAAAAAAAAAAAAAAAAAAAAAAAAAAAAAAAAAAAAAAAAAAAAAAAAAAAAAAAAAAAAAAAAAAAAAAAAAAAAAAAAAAAAAAAAAAAAAAAAAAAAAAAAAAAAAAAAAAAAAAAAAAAAAAAAAAAAAAAAAAAAAAAAAAAAAAAAAAAAAAAAAAAAAAAAAAAAAAAAAAAAAAAAAAAAAAAAAAAAAAAAAAAAAAAAAAAAAAAAAAAAAAAAAAAAAAAAAAAAAAAAAAAAAAAAAAAAAAAAAAAAAAAAAAAAAAAAAAAAAAAAAAAAAAAAAAAAAAAAAAAAAAAAAAAAAAAAAAAAAAAAAAAAAAAAAAAAAAAAAAAAAAAAAAAAAAAAAAAAAAAAAAAAAAAAAAAAAAAAAAAAAAAAAAAAAAAAAAAAAAAAAAAAAAAAAAAAAAAAAAAAAAAAAAAAAAAAAAAAAAAAAAAAAAAAAAAAAAAAAAAAAAAAAAAAAAAAAAAAAAAAAAAAAAAAAAAAAAAAAAAAAAAAAAAAAAAAAAAAAAAAAAAAAAAAAAAAAAAAAAAAAAAAAAAAAAAAAAAAAAAAAAAAAAAAAAAAAAAAAAAAAAAAAAAAAAAAAAAAAAAAAAAAAAAAAAAAAAAAAAAAAAAAAAAAAAAAAAAAAAAAAAAAAAAAAAAAAAAAAAAAAAAAAAAAAAAAAAAAAAAAAAAAAAAAAAAAAAAAAAAAAAAAAAAAAAAAAAAAAAAAAAAAAAAAAAAAAAAAAAAAAAAAAAAAAAAAAAAAAAAAAAAAAAAAAAAAAAAAAAAAAAAAAAAAAAAAAAAAAAAAAAAAAAAAAAAAAAAAAAAAAAAAAAAAAAAAAAAAAAAAAAAAAAAAAAAAAAAAAAAAAAAAAAAAAAAAAAAAAAAAAAAAAAAAAAAAAAAAAAAAAAAAAAAAAAAAAAAAAAAAAAAAAAAAAAAAAAAAAAAAAAAAAAAAAAAAAAAAAAAAAAAAAAAAAAAAAAAAAAAAAAAAAAAAAAAAAAAAAAAAAAAAAAAAAAAAAAAAAAAAAAAAAAAAAAAAAAAAAAAAAAAAAAAAAAAAAAAAAAAAAAAAAAAAAAAAAAAAAAAAAAAAAAAAAAAAAAAAAAAAAAAAAAAAAAAAAAAAAAAAAAAAAAAAAAAAAAAAAAAAAAAADmI5c9kHUduHUAAAAAAAAAAAAAAAAAAAAAAAAAAAAAAAAAAAAAAAAAAAAAAAAAAAAAAAAAAAAAAAAAAAAAAAAAAAAAAAAAAAAAAAAAAAAAAAAAAAAAAAAAAAAAAAAAAAAAAAAAAAAAAAAAAAAAAAAAAAAAAAAAAAAAAAAAAAAAAAAAAAAAAAAAAAAAHIHEnE8c+ZUtUVV1000U1VVT3RFMczLY20Ol+oap2MjVecPFnvimfo6o94GAabp+XqORTYwrFy9dqniIohsTG6cRpujXs7XbvF6KOacejze/Lbmi6Hpm3sWm1p2PbtzEd9zjmqffme9je+8ua9Pv0RM8dmQaWytCuVWIv4M+NomOZp88LHXbqoqmmuJpmPNLL9v5c24imZnhds7S8PUqJmuiKbvmrp7pBrjgXjVtBysGZqinxlr66mP1rPIOAAAAAAAAAAAAAAAAAAAAAAAAAAAAAAAAAAAAAAAAAAAAAAAAAAAAAAAAAAAAAAAAAAAAAAAAAAAAAAAAAAAAAAAAAAAAAAAAAAAAAAAAAAAAAAAAAAAAAAAAAAAAAAAAAAAAAAAAAAAAAAAAAAAAAAAAAAAAAAAAAAAAAAAAB2pjn/7rtoGgajruTFnTsau7399UR7Wn35BaI8rLdp7G1bcV2KrVmbOL9VeuRxHweltHaHSzB0vs5Gs9nKyo4nsfUUz73nbGoiizbpt2aIt0U90RTHEQDFtqbF0nbtFNdu37Jy+O+7ciPL6oZNducRxDrcreW/c7gUc2/xTV3tf7tvTXi3+Z+pllupX+KZYPuKvtYl/7mQa2wLk26qZiWVYOR2qI72HWJ4mF806/wARESDJ6a4qp4qiJifNKzavtvHy+1cx+LN6e/8Ayy91i69dFfMQDWuoadk4Nc037cxHmq80vE2xetWsi32L1EV0z3cTDF9W2rE9q5gVevxcyDDhWv493HuTReomiqPNMcKQOAAAAAAAAAAAAAAAAAAAAAAAAAAAAAAAAAAAAAAAAAAAAAAAAAAAAAAAAAAAAAAAAAAAAAAAAAAAAAAAAAAAAAAAAAAAAAAAAAAAAAAAAAAAAAAAAAAAAAAAAAAAAAAAAAAAAAAAAAAAAAAAAAAAAAAAAAAAAAAAcg4HPHe7UW6qq4ppjmqfNHeDjiHowsG/m36bOJaru3ap4immOWc7P6aanrU28jOirDw57+ao4qqj1Q3TtvbGl7exot4GPTF36q9VHNc/CDWezOk9y52MncFc26PL7Ho8s+/Lbumafh6XjU2MGxRZt0+SKYema1Oagd6q/WoV1+txXUoV1g5uVvFk3e6VS5cW7Lu9094LbqN3nnvYlrtXOJe+5lkGbc5mWM61POJe+5kGubU9644lziYWy3+97LNXHAMjxbvMR3rhaudywYdzv4XWzX5AXKmrlUiY7vU8lFfKtTUDrn4GNnUdnItxPMd1Xnhh2r7Zv4szcxubtry+uGb01T5p4d4q7galqpmmZiqJiY80urZGqaHi6hEz2Yt3frqfOwzVtFysCZmujtW48ldMAtI54OAcAAAAAAAAAAAAAAAAAAAAAAAAAAAAAAAAAAAAAAAAAAAAAAAAAAAAAAAAAAAAAAAAAAAAAAAAAAAAAAAAAAAAAAAAAAAAAAAAAAAAAAAAAAAAAAAAAAAAAAAAAAAAAAAAAAAAAAAAAAAAAAAAAAAAAAAAAA5IXPRNFzdayKbGn49d6uZ4niO6PfnzNw7Q6U4uF2MjXaoyb0cTFmO6mPf9INY7W2bqu4b0exbE0WPPerjimIbt2j090nb9NF27RGVmR5blcd0T6oZdat2sa1Tax7dFq3THERRERHHvFVYO81cRxHER5vU6VVOlVanVUDvNTpVUpzWp1Vg7V1KFdRXX5e957lfAOt+vha8u53S9N+55VryrnPILfl18zLH9YnnEvfcyvOTV5Vj1aecW99zINeW5/W9NuXko/e9Fue8Fxx6+JXXHr5471js1cSuONc8gLxaremir1rdZreqisHspl3iXnoqVYkFaJ/8AyHNURXTNNdMTTPlj0qcS55BYNX2zYyObmH/VXPrfNLD83ByMK5NF+3VTMefzS2jEumTYs5Fubd+iK6Z9MeQGp5hwyzVtr1UTVcwZ7UeXsT5WL37Vdm5NFymaao8sSCmAAAAAAAAAAAAAAAAAAAAAAAAAAAAAAAAAAAAAAAAAAAAAAAAAAAAAAAAAAAAAAAAAAAAAAAAAAAAAAAAAAAAAAAAAAAAAAAAAAAAAAAAAAAAAAAAAAAAAAAAAAAAAAAAAAAAAAAAAAAAAAAAAADmPWDhzHlcxTzPER3s32h061TXaqL1+mcPDnv8AGVxxMx6oBh2NjXsq7Rax7dV25VPEUUxzLZ+zulWRl9jJ12rxFjy+Jp+iq/g2Xtjamk7csUxiWaa7/HferjmqZ+HyL7Xd5B59J0vA0bGixp2PRZtxHE8R3y9U1qE3HSawVqq3Sa1Ga3WawVZrdKq1Ka3SawVKq1Oqt0mpTqqB2rqeW7X5XNdby3a/KClkVrZk1eV6r9a3X6/KDx5FXlWXVZ/3S99zK6358q06n/ZLv3Mg19T5ZVqJ7oUI8qtQD00T3w9liviXhol6LU8SC72K+Yey3V3LXj1vdbqB7aKlWmXloqVqagemmXeJUIl3iQVYl2iVOJdokFSJeLUdMxdQo4v247Xmqjyw9US584MD1fbuThzNdmPG2vTHlhY6omOYmOJ9DbMccceZZ9V0DFzo7dEeKuz56fODXYuep6Pk6fVPjaJmjzVx5Ft4BwOZcAAAAAAAAAAAAAAAAAAAAAAAAAAAAAAAAAAAAAAAAAAAAAAAAAAAAAAAAAAAAAAAAAAAAAAAAAAAAAAAAAAAAAAAAAAAAAAAAAAAAAAAAAAAAAAAAAAAAAAAAAAAAAAAAAAAAAAAAAAAAAMh2jtPVt0ZU2tJxq7sUfR18d1PvsebQ6P67naDFzJ07Irs1+N74pnunujyx5wZ/tPpXZ0TsX8vDv5mbT39qq3PZifVDNfYOdTTFNGHfpiPqYtzwzLZPVvCzotY2u0U2L0+18dEe1q9/wBDa2NesZNim9Yqou26u+mqniYmAR0qwc//AAmR/ol0nT8//B3/APRKSnZp+tj4jsU/Wx8QI0zp2f8A4O//AKJdZ03P/wAHf/0Skx2KfrY+I7FP1sfECM06bn/4O/8A6JdZ03UP8Hf/ANEpN9in62PiOxT9bHxAjFOmah/g8j8nLrOl6h/gsj8nKT/Yp+tj4jsU/Wx8QIuTpeof4LI/Jyp1aVqM/wD+Fkfk5Sn7FP1sfEdin62PiBFKvSdR/wADk/k5eW7pOpT5MHJ/Jylv2KfrY+I8XR9bT8QId3tH1SfJp+V+Tl4b2iarP/7flfkpTS8XR9bT8R4uj62n4gQgvaFq32Oy/wAlK26ht/WKsa7EaZmT7Wf/AHVX8E8fF0fW0/EeLo+sp+IHzTp2tr3n0jO/IVfwVKdr679iM78hV/B9J/FW/rKPiPFW/wDu6fiB83aNsa7H/wC0Z35Gr+CtRtrXOfpTnfkav4Po74q39ZT8TjxVv6yn4gfO2ztzW4n6VZv5Gr+D3Wtva159KzfyNX8H0Em1Rx9BT8TjxVH1lHxAgJRt/WfPpeb+RqV6dv6x9jMz8jKevirf1lPxQ58XR9ZT8QIG06BrH2MzPyUqkaBq/wBjMz8lKd3i6PrKficeLo+sp+IEFY0DV/sbmfkpd40DV/sbl/kpTo8XR9ZT8R4uj6yn4gQYjQNW+xuX+Sqc/wBA6t9jcv8AJVfwTm8XR9ZT8R4uj6yn4gQa/oHVvsbl/kqv4OY0HV/sdl/kqv4JyeLo+sp+I8XR9ZT8QINXNu6pcpmm5peVVTPmm1P8GN6t061K7zcwdOyqK/rKrU8S+g9fiqI5qppiPeWTXtZxtN07Iy7sUU2bNE1TVVHoB82dV0rM0rKnH1HHu416O/sXKZiePS8MxwzzrFrt7cO8L+ffrmYuRxRHopiZ4YJV5uAdQAAAAAAAAAAAAAAAAAAAAAAAAAAAAAAAAAAAAAAAAAAAAAAAAAAAAAAAAAAAAAAAAAAAAAAAAAAAAAAAAAAAAAAAAAAAAAAAAAAAAAAAAAAAAAAAAAAAAAAAAAAAAAAAAAAAAAAAAAAAGdbC+l1/0+M/dDBWdbC+l1/75+6AZniX5jiGb7Q3vq23rtPsTImvH8tViufay17bnifhe6zcBKnZ3UbSdfootXrkYmZMd9u5PdM+qWdUzFURMTEx6kKbF+aaqaqKpiafJMeWGxNmdTtT0SaLGdVOZh8/Q3J9tT70/wAQSTGO7Z3bpW47EVafkUzc+qtVTxVDIafODkAAAAAAAAAAAAAAAAAAAAAAAAHmyMqi1Hl5qB6Kp4jl48jNpo7rffPpeK/k3LvPM8U+iFD4JB3u3a7szNdXPqaL697s7VVGg4VyOxE9vI4n4qW0966/Z23t/Jzrsx26Y4t0zP0VXmhEfU869qOfey8qua716qaqpn0yDA95fTC39x++WPyv+8fphR9wsFXlBwAAAAAAAAAAAAAAAAAAAAAAAAAAAAAAAAAAAAAAAAAAAAAAAAAAAAAAAAAAAAAAAAAAAAAAAAAAAAAAAAAAAAAAAAAAAAAAAAAAAAAAAAAAAAAAAAAAAAAAAAAAAAAAAAAAAAAAAAAAAAzvYP0uv/fP3QwRnewfpdf++fugGST3SrWqlGsongFxt3PWr0V93HmW+3Ur0VAuuDn5GFfov4t6u1donmKqJ4mG3NldX7tmaMXcNHjLfdEZFv6KPfhpOKneKgTP0rVsLVcem/p+Tbv25jnmme+Pge3mUPNv7j1LQsmL+m5Vdqrz0+WJ9+G8NldW8DUot42tRGJkz3eN+oq/gDaoo2sii9RTXZqpuUVRzE0zzEq0eQAAAAAAAAAAAAAAAAAHWuuKI5qmIB2Ur16i1HNc/A8eRnc8xaj4ZeCuuqueapmZ9YPVkZ1dfdb7qfS8kzPPLgAcTPETMzxHplywXq5uujbW2rlNuqPZmVHirUeePTPxA1H1s3bOt67/AEdi1/7lhz2e6foq/PLWnLrXcquXKq65maq55mZ85Mgw/eH9vo+4WGfKv27u/Ot/cLDIOAAAAAAAAAAAAAAAAAAAAAAAAAAAAAAAAAAAAAAAAAAAAAAAAAAAAAAAAAAAAAAAAAAAAAAAAAAAAAAAAAAAAAAAAAAAAAAAAAAAAAAAAAAAAAAAAAAAAAAAAAAAAAAAAAAAAAAAAAAAAGd7B+l1/wC+fuhgjO9gfS6/98/dAMkrh0ieJVK1KfKCtRUrU1PLE8KlNQPVFapTW8sVO9NQPXFTv2peWmp3iqQZps/f+r7au002b03sTz2Lk8x8Hob62X1G0fclui342MXMmO+zdnjmfVPnRT7TtbvV2q6a7dU01xPMVRPEwCb/AG445jvduUaNj9WtS0XxWNq3ObhxPHNX0dMeqfO3ztfdOk7kx4vaZlUXJ49tb59tT78AvwcwcgAAAAAAAAAAEzx5fI8+Rk0WeeZ5q9ELbfy7l2eOeKfUD3ZObTRzFHtp9K2Xb1d2rmufgdAAAAHHnjzgp5F63j2Ll69VFNuimaqpnuiIRJ6m7or3Rua/k01T7GtTNuzTP1sef4W3Ovu7o03S6dExLkxlZUc3eJ+ho9Hwo5xIKkT3O3PcpxLnnuBie7e/No+4WKV83X/baPuFjkHAAAAAAAAAAAAAAAAAAAAAAAAAAAAAAAAAAAAAAAAAAAAAAAAAAAAAAAAAAAAAAAAAAAAAAAAAAAAAAAAAAAAAAAAAAAAAAAAAAAAAAAAAAAAAAAAAAAAAAAAAAAAAAAAAAAAAAAAAAAADPNgfS6/98/dDA2ebA+l1/wC+fugGS1KVatVCjWDrEu8SpyRIK8VO0VKES7RIPTTUqRU89Mu8SCt2jtKUSTIO81K+nanl6ZlU5OBkV2b1E8xVRMw8cy6TIN8bF62czRiboomJ7ojKtx+mqG7dM1HD1TFoyMHIt37NUcxVRPPx+hBeqV72vu7V9s5UX9Ly66KYn21uZ5oq+AE24Gp9idY9K1uLeLrHZ0/NniIqqn2lc+qfM2pbuU3bdNduqKqZjmJie4FQcQ5AAAJda6opjmqeIeHIz4jmm13+sHsu3KLcc11RHqW7Izaq4mLfdT+l5LldVyeap5l1BzMzM8zMy4ccuAcnLgBzy4ABb9f1XH0XSMrPyqopt2aJq7/PPmhcPJ70I8+EJvD2Tm0bfwrv9VZntZHE+Wr60Grd0a3f1/XMvUMmqqartc8RM/Q0+aPiWymVKJcxIK0S55U4lyDFt1f26j7hZJ8q9bp/ttH3KyyDgAAAAAAAAAAAAAAAAAAAAAAAAAAAAAAAAAAAAAAAAAAAAAAAAAAAAAAAAAAAAAAAAAAAAAAAAAAAAAAAAAAAAAAAAAAAAAAAAAAAAAAAAAAAAAAAAAAAAAAAAAAAAAAAAAAAAAAAAAAABnvT/wCl1/75+6GBM96f/S6/98/dAMmq8qlWrVeVSr7+QUp8jq7VOvIDtTLpyRIK9Mu8So0y7xIKvLiZdOXHIO0y6zJy6yDiZdap7+fO5l1kHWWdbG6o65tW5Tb8bOXgeezdq5+L0MEqUp8oJm7F6kaHuy3TTj34sZsx7bHuzxVz6vSzaJl8/rN+9jXqbtm7Xbu098V0T2Zj4m6+lfV3WbWVjaZrNv2bjV1RRTemeK6ffnzgkvy8mRm0Wp7NPtqnhyMyu7Hd7Wl5J8oK1/IrvT7ae70KIA5HABwByAHJyAcnldaqqaaJqqnimI5mQYz1G3PZ2rtnJzq6oi/MTRapnz1zHchzm5l7NzLuTkVzXdu1TVVVPnmWedb95Vbj3PViY1znAwqvF0xHkqq88/8A56GuKZ7oBWiXaJU4l3iQVIl25Uol35Bi+6P7bR9ws0rzuf8AttH3CzT5QcAAAAAAAAAAAAAAAAAAAAAAAAAAAAAAAAAAAAAAAAAAAAAAAAAAAAAAAAAAAAAAAAAAAAAAAAAAAAAAAAAAAAAAAAAAAAAAAAAAAAAAAAAAAAAAAAAAAAAAAAAAAAAAAAAAAAAAAAAAAAM+6ffS6/8AfP3QwFn3T36W3/vn7oBk1UKdUK1UKVUd4KNSnKtXClUDpJEkuIBVpdolTpl2iQVOXDjkBzy6zLlwDiXWXaXEU1VTEUxMz5gU6nNqzXeq7NFMzK6Ymk13OKr/ALWPrfSvFrGt2aeKKeAWbG0qmniq9Pan0Mi2zbinXMCKY4iL1PkUOwuG3aP+3cH77SCTv6/WAADjkHJy4Ac8uBxyDkccnIOWtOuW842ztivGxa4jPzI8Xb4nvpp88/8A56Ww87LtYOJeysmuKLNmma66p80QhV1J3Xd3burJz6p4x6ZmixTz3U0Ax7tTVVVVVM9qZ8vp9bvE96hTKpTIK8S7xKlEu8SCpEu/KlEu0SDG9zf2yj7hZ58q77l/tlP3CzgAAAAAAAAAAAAAAAAAAAAAAAAAAAAAAAAAAAAAAAAAAAAAAAAAAAAAAAAAAAAAAAAAAAAAAAAAAAAAAAAAAAAAAAAAAAAAAAAAAAAAAAAAAAAAAAAAAAAAAAAAAAAAAAAAAAAAAAAAAAAM/wCnn0uyPvn7oYAz/p59Lcj75+6AZTVHcpVQrVKdUAoVQpVQr1Qo1ApS60u9TpAO9LvDpS7wDmAAI8hxy9GLh3smri3T3emfIv2FpVqxEVVx27nr8kAs2Hpt3ImKqo7NHpnyr5iYFnHp9pT7bzzL3RTx5IcxSCj2Dsq/Zc9kHn7C4bfo/wC28L77S8/YXDQaP+2cP77SCRh3ODkAccnIOXHI4ByADg57vOSs279extt7ezNTy66Yos0TNMc/RVeaPjBqHwlt6xhYNG28G5/XX47WRNM+SnzR8KNlEvTuPWcjXtcy9Sy66qrl+5NXfPkjzQ8VEg9dEqkS89EqtMgr0yqRKjTLvTIK0S7xKnTLtEgx3cn9so+4Wdd9yf2uj7laZBwAAAAAAAAAAAAAAAAAAAAAAAAAAAAAAAAAAAAAAAAAAAAAAAAAAAAAAAAAAAAAAAAAAAAAAAAAAAAAAAAAAAAAAAAAAAAAAAAAAAAAAAAAAAAAAAAAAAAAAAAAAAAAAAAAAAAAAAAAAAA2B07+luR98/dDX7YPTr6W5H3z90AymVOpWmFOqAUKlKpXqhSrgFCp0hVqjyunAFLtBTTNUxFMTMz5IXbB0m5d4rvT2afR5wW+zZrvVRTbpmqZ9HmXrB0eKeKsmeZ81MLpjY1uxT2bdMR6/O9EQDpbtU0UxFMRER5oVIhzEO0QDiKXMUu8Q5iAdIpc9l3iHPZB0il79Cp/7Yw/vkPLFL36HT/2viffIBv7kcQA7OBxIOeXDjk5BycnLjzg554748qLXhL70q1HWKNvYVyfYuJPavceSqv/AO3ekVuvV6dJ0q5dpn+uq5ptxHpR73FtzE1zxleXbj2RVzPjY+i59fpBomny+pVolkG4NnZ+kVTVRE38aO+Ko8se+xyOYnv7gemiVamXmonlVpkHpplUplQplUpkFemXeJUqZdokFh3F/a6PuVpXXcP9ro+5WqfKDgAAAAAAAAAAAAAAAAAAAAAAAAAAAAAAAAAAAAAAAAAAAAAAAAAAAAAAAAAAAAAAAAAAAAAAAAAAAAAAAAAAAAAAAAAAAAAAAAAAAAAAAAAAAAAAAAAAAAAAAAAAAAAAAAAAAAAAAAAAABsPpz9LMj77+6GvGxOm/wBLcj77+6AZVMKdUK1UKdUAoVQpVw9FUObOLdyKuzbj4ZjuB4ao74enC069kzE8din0yvuHpFu1xVdjt1/oXCLcRHERERHmB4sLT7ONEdmntVfXS90U8zy7RS7RAOIh2iHMQ7xAOsQ7cO0Q7RSDrEO0Q7xDmKQdYh3ilzFLvFIOkUvfolP/AGtiffIeaKXv0anjVMX75AN5fwHADklwADjkBy61VRTTMzMRERy5Y7vHUvYuDOPZq/rrvd70AwneOpzqmpTFE82LU9miPN3eWWP+K+LzLjNrnze+TZ9QLVVYiqmYqjmJ8sSw/cWxcPUu1exYjGyPTTHFM+/DYc2PU6VWPUCOWs6BqGjXezl2Z7HPdcp74n4Xgpq5SRzNPs5VubeRapuW5+pqhrzcvTuKu1f0ersVeWbVXkn3ga2plVplzm4WTgX6rWXart10+XmOFOifMCvTLvEqVMu8SCx7g/tVH3K1z5ZXPXv7VT9ytk+UHAAAAAAAAAAAAAAAAAAAAAAAAAAAAAAAAAAAAAAAAAAAAAAAAAAAAAAAAAAAAAAAAAAAAAAAAAAAAAAAAAAAAAAAAAAAAAAAAAAAAAAAAAAAAAAAAAAAAAAAAAAAAAAAAAAAAAAAAAAAADYvTb6WZH3390NdNj9NKZq03IiImZ8b+6AZXMOtNuu5V2aKe1PqXXD0q7f4qrjsU+tesfBt2KeKKYmfTILHh6RzxVkf6V2t2KbdPZopimPRD3RZn0OfE+oHi7B2HsmyeJB4uxw5il6ptOPF8eYFCI9TtFKrFDt2JBSil3ilUiiXaKQU4pd4pVIodopBTil2ilUih3igFOKXu0en/tPF++QoRRy92k25jUcb7uAbl57nPLgAAAABTyLlNmxXcuTxTTHMy1vquRXn5td+vyTPER6mU7oy+YjFtz66+PR6GNxY9QPB4k8QuUWHeLHpBavEep1mx6l39j+pz7H9QLJVj+pRrxu7jhkE4rpVieoGFazt/E1WxNvMsU1+irjvhq7cuwMzT+1e0+Kr9mO/s/VRCQNeFzHkee7p8zzEUginVRXbqmi5TVRXE8TTVHHDvDfm5tjYWr01VTa8Vkea5T3ctTbj2fqeiV1TXam7Yie65RHd8PoBr/Xf7TT9ytsrlrn9piJ7uKVtq7gcAAAAAAAAAAAAAAAAAAAAAAAAAAAAAAAAAAAAAAAAAAAAAAAAAAAAAAAAAAAAAAAAAAAAAAAAAAAAAAAAAAAAAAAAAAAAAAAAAAAAAAAAAAAAAAAAAAAAAAAAAAAAAAAAAAAAAAAAAAAAMz6e7ss7cv1U5uJGRi11c1cfRU+uGGOYn0gl9tjI0Pc2JF/Rsui5x5bdU8V0+/Errc0SKfJE/Eh1peqZml5NGRgZNyxepnmJonhvLYXXCmqKMPdlvnyRGVb/AOqAbMr0uKfN8SlVp3HmZNgZODq2LTk6dkWr9mqI4qtzz3ObmLEeYGKVYPHmU5wvUyavGj0KFeODHZxPU6Ti+pf68eFCux6gWT2Nx5nHiO/yLvVZ9SlVa4BbvE+pzFn1Pd4s7APHFn1O0WfU9fYcxQDyxa9TvFr1PTFDtFIKFNn1PbpdrjPx54+rhxTS9enU/wC+2Pu4Bs7zDj0OAdnDgBzyoZd6LFmquZ8nkVlj1a/467Fun6CkFpuUVXrtVdffVVPLtTY9T00UKkUd4PLTY9SpGPHoeqmhUigHkjHj0O0Y0eh7Itu8WweKMWPQ59i0+h74odoo5Bb4xKefI7ewqZ80Lh4tZN1bp0bauDVk6vm27NMRzFHPNVXqiAez+jrfkmn1tf8AUTeu1dq49yzm128zNmJinGt8VT8Pmj4Woeo/XXUtZm9h7dpnAwp9rN3y3Kv4NM5GTdybtV3IuVXLtXlrrnmZBdd161a1vV7uXYwreHbq+htW/IskyTPMuAAAAAAAAAAAAAAAAAAAAAAAAAAAAAAAAAAAAAAAAAAAAAAAAAAAAAAAAAAAAAAAAAAAAAAAAAAAAAAAAAAAAAAAAAAAAAAAAAAAAAAAAAAAAAAAAAAAAAAAAAAAAAAAAAAAAAAAAAAAAAAAHNPdVDgBkm0936xtfMi/pWXXbpmfbWpnmiv34SF2D1l0jXvFYms9nT86e6Kq5/q6p9/zfCis7UzMTz5PXAJ8RTRetxXbqproqjmKonmJ95QuWfUibsXqhru1btFuLvsvBjumxdnzeqfMkZsrqJoW7bNFONfixmzHtse7PEx73pBfrln1KFdn1LtXb8/m80qFy2C1V2vUoV2vUuldv1KFdvygttVv1OnY9T3V21Gae8Hn7DiKVeaXHZBSiHeIduHMQDmmHr0+P98s/dQ80Q9mnx/vln7qAbEkPNAA5dZJmIiZnu47wefPv+Jsf56u6Fjpp7UzM98+d6My7N+/M/Ux3Q60UgUUepVpp9TmilVppB1pp9SpTT6namlVikHSKPU7RQqU0T5nersWqZruVU0UUx31TPEQCnFHqUNRzcTTMWvJ1DItY9i3HM13KopiPjay6jdbND2xTcxtLmnUdRjmIpon2lM+uUYd67817d2XVc1TLqm1zM02KJ4op+AG7+o/X+zY8bg7RtxduxzTOXcjmmJ/yxPlR417W9Q13NuZerZd3Kv1Tz2rlUzx73oWyrzS6gAAAAAAAAAAAAAAAAAAAAAAAAAAAAAAAAAAAAAAAAAAAAAAAAAAAAAAAAAAAAAAAAAAAAAAAAAAAAAAAAAAAAAAAAAAAAAAAAAAAAAAAAAAAAAAAAAAAAAAAAAAAAAAAAAAAAAAAAAAAAAAAAAAAAOeXADnlVx792xdpu2blVu5TPNNdE8TE+pRcwDcuwetmoaTFvE3BTVnYvdHjf8A3lMe/wCdIDbm49J3LhxkaRl270eenn21PqmPKg32nv0bWtQ0bMoydMyrmPdpnnmme6ffgE567Xq49/zKFdtpvYPW+zkRbxN00Rau/Qxk0fQz78eZubDysXUManIwr9u/ZqjmKqJ5B5a7bz121zrtqFdsFtqpdeHrrtqFUcAo8OYh34IgCmHs0/8Atdr7qHmp73rwI/3q191AM/jyOOSJAHi1K92Lfi4n21T13K4oomqfMstdU3bk1z38g60Uq9FBboV6KAcUUqtNDtRQq00A6RR3cqsUe/7617j3FpO2cKrL1nMtY9uiOeKp7596EbepXX/O1HxmFtSirExZiaZyK/o6/XHoBvXfvUbb+y7FX9IZVN3L45pxrU81zPrjzfCi/wBResevbtmuxjXKtP06eY8VZnszXH+aY8rWmZmZGbfrv5d65evVzzVXXVzMyo9rvAmqZmZme+fO45mCe+XAOZnnyuAAAAAAAAAAAAAAAAAAAAAAAAAAAAAAAAAAAAAAAAAAAAAAAAAAAAAAAAAAAAAAAAAAAAAAAAAAAAAAAAAAAAAAAAAAAAAAAAAAAAAAAAAAAAAAAAAAAAAAAAAAAAAAAAAAAAAAAAAAAAAAAAAAAAAAAAAAAB3irhk2z976xtTIi5pmVX4qZ9vYrnmir4JYsAlhsTq5ou5It42oVRgZ3dHZrnimqfVLY00010xVTMTFUcxMehAyiqae+mZifTDYmxOq2tbarosZFyc3T47ptXJ9tEeqQSouW/U812jv8i0bQ31oe7MemdPyIt5PHNVi7PFVPvelkdy2C2TTw44eq7a4UJp4BxTD14P9qtfdQ8sPXgx/vNr7qAZ0OI8infueLtTPnB5NQuTXV4uJ7o8qjRb9Tmiia6uZ8svXbtA6UW3ootu9FEUxzVPER52teonWTb+0aK8fGrjUdTju8Tan2tHvyDY2Vfx8LGryMy7RYs0RzVXcq7MRHwtGdR/CAwdM8dg7Topy8mJmmcmr6CmfV6Wit99SNwbzya51HLqt4vPtMe1PFFMfvYTM8zM+cF43LuXVdyZ9eZrGZdyL1U8x2qp4p9UR5IWeqqJhxLgAAAAAAAAAAAAAAAAAAAAAAAAAAAAAAAAAAAAAAAAAAAAAAAAAAAAAAAAAAAAAAAAAAAAAAAAAAAAAAAAAAAAAAAAAAAAAAAAAAAAAAAAAAAAAAAAAAAAAAAAAAAAAAAAAAAAAAAAAAAAAAAAAAAAAAAAAAAAAAAAAABzTPE8uAHqw8u/h5FF7Eu3LV6ieaa6J4mG49h9bMvC8Vh7lo9k2I9rGREe3pj1+lpPmTkE4dE1nTdwYdGVpOXbyLdUfU1czHqmFe7bnnlC7b+v6loOXTkaXk3LNynv7p7p9+G99i9ZsLUabeJuSiMXJ+hjIpnmir348wNqPXg/2i391Dy27lnJtU3sW5Res1d8V0TzEvVp/9pt/dAzb1zLyXpm9c4iO6PIr3JnscRxPM8RPLx6rqem7fwa8zWMu1jWKI5ma6uJn3o84PbYsd8d3d62Pb233oGy8Sq7q+Zb8fxPZxqJ5uVfBDR3UrwhL1+LmDs21NmzMTTVl3Pop9dMeZHzVNRy9SyqsjOyLt+9XPNVdyeZkG1Oo/XDXNzxcxNMmrTdO54im3PFdceuWo7ldVdc1VTM1z3zMzzMunIDgAAAAAAAAAAAAAAAAAAAAAAAAAAAAAAAAAAAAAAAAAAAAAAAAAAAAAAAAAAAAAAAAAAAAAAAAAAAAAAAAAAAAAAAAAAAAAAAAAAAAAAAAAAAAAAAAAAAAAAAAAAAAAAAAAAAAAAAAAAAAAAAAAAAAAAAAAAAAAAAAAAAAAAAAAHMTMOe1LqAy7Zu/da2veiMPIquYvPtrFye1TP8ABIHYfVLRNduW4ybtGBlRxNVF2ezT8Eoo0zxLtTX2Z57+fVIJZ9QuvGlaHN3F25TRqOfEdnx3/uqJ9U+dGndu79a3XnTla1m3L9X1NEzxRTHqp8ixRX6u90B27clVXa4dQAAAAAAAAAAAAAAAAAAAAAAAAAAAAAAAAAAAAAAAAAAAAAAAAAAAAAAAAAAAAAAAAAAAAAAAAAAAAAAAAAAAAAAAAAAAAAAAAAAAAAAAAAAAAAAAAAAAAAAAAAAAAAAAAAAAAAAAAAAAAAAAAAAAAAAAAAAAAAAAAAAAAAAAAAAAAAAAAAAAAAAAAAAAAAAAAAAAAAAAAAAAAAAAAAAAAAAAAAAAAAAAAAAAAAAAAAAAAAAAAAAAAAAAAAAAAAAAAAAAAAAAAAAAAAAAAAAAAAAAAAAAAAAAAAAAAAAAAAAAAAAAAAAAAAAAAAAAAAAAAAAAAAAAAAAAAAAAAAAAAAAAAAAAAAAAAAAAAAAAAAAAAAAAAAAAAAAAAAAAAAAAAAAAAAAAAAAAAAAAAAAAAAAAAAAAAAAAAAAAAAAAAAAAAAAAAAAAAAAAAAAAAAAAAAAAAAAAAAAAAAAAAAAAAAAAAAAAAAAAAAAAAAAAAAAAAAAAAAAAAAAAAAAAAAAAAAAAAAAAAAAAAAAAAAAAAAAAAAAAAAAAAAAAAAAAAAAAAAAAAAAAAAAAAAAAAAAAAAAAAAAAAAAAAAAAAAAAAAAAAAAAAAAAAAAAAAAAAAAAAAAAAAAAAAAAAAAAAAAAAAAAAAAAAAAAAAAAAAAAAAAAAAAAAAAAAAAAAAAAAAABzTTNVUU0xM1TPERHlleNpbZ1Xdut2NK0LFrycy7PdEeSmPPVVPmiPSmx0f6E6FsixZztUt29U13jmq9dp5t2p9FFM/rkEaun3QPeO77dvJuY9OkadX3xkZsTE1R6aaPLP6G/dq+DBs/TaKK9cyM7V78cTMVV+Jt8+js098x8LfYDDtJ6YbH0nicHaukUVeTtV41Nyfjq5leY2voEU8RoelRHo9iW/wCC8AMZz9g7Q1C3NGZtjRbtM+nCtxPxxDD9c6AdO9Wju0ScGv67DvVW/wBHMx+htYBFLd3gpV0UV3dp674yqOZjHz6OOfREV0/vhoLe3T/c2ysibW4dKv49HPFN+I7dqv3q47n0qUM/CxdQxLmNnY9rIx7kcV27tMVUzHvSD5ZDa3hJaHtnbnUa9pu07M2KLdqKsq1TVzbt3J7+zT6OI45hqkG8vBd6ebd3/n7ht7nxb2RRh2rNVmLd6q3xNU18zPZ45+hj9KQPzuPTf7FZf57d/i1X4Dn013d94xvlXEtQae+dx6b/AGKy/wA9u/xas8I/pBtDZHT63q23cLIx8yc23YmqvJruRNNVNUz3VTPohLRovwyPcitfjOz8m4CD4AAAJu7Q8Hzp9n7T0XMzNOy7uTkYVm9dr9mXKe1XVREzPETxHfPmXb53Hpv9isv89u/xbE2D/cXbn4txv2VK+g0987j03+xWV+e3f5kQ+tW3tP2p1P1zRdGt128DErtxaprrmuYiq3RVPfPfPfVL6Ovnx4Svu37o++2v2FsGsktuhfRTZG7el2j61ren5N7UMmb3jblOVXRE9m7VTHEUzER3UwiSn94LnuH7e9/I/b3AeT53Hpv9isv89u/xPncOm/2Ky/z27/FuEBp753Hpv9isv89u/wASfBw6b/YrLj/427/FuEBpTJ8Gfp7diYt2NTsT6beXM/KiWIa54J2l3LddWh7jzLFz6mjLs03Kfjp4lJoBAbfHQHe+1bd3Iow6NVwaOZm9gzNcxEeeaJ9tH6WprlFVuuqi5TVTXTPFVNUcTE+iX1Sac629E9I3zp+Rn6VYtYO4qKZqou247NN+Y+priPT6QQOHp1HCyNNz8jCzrVVnKsVzbuW6o4mmqJ4mHmAABzETMxERMzPdEQ3D038H/dm8LVrMy7dOjaZX3xeyqZ7dcf5aPL8fDbXg0dFcXE07F3ZurGpvZt+IuYeLdp5ps0eauqJ8tU+vyJMA0btfwZ9kaVTbr1X2brF+meZm9d8XRP8Ay0cfrbF0rptsvSY4wNr6Pbn01YtNc/HVEyy0Ba6dvaLRTxRo+nUx6IxqI/c8ubszbGdbqozNu6Repq7p7eHbn9y/ANX650G6d6tRxOgW8Ov6/DuVWp+KJ4/Q1burwUcaumu5tbX7luvmZixnW4qj3u3TxP6EogHzi330t3bsiqqrXNKuRix5Mqx/WWp/5o8nw8MIfU/LosXMa7Rl0W68eaZ8ZTciJpmnz8xPdw+a/U3N0vUN+63k7fxLWHpdWTVFi1b7qezHd2o9+YmfhBjAADmImZiIjmZ8z26JpOdrmqY2naVjXMnNyK4ot2rcczMymp0W6B6TtCxY1PcluzqWvTEVRFUdq1jz6KY88+sEdOnvQjeO8qLeT7Fp0rTa++MnNiae1Hppo8s/ob+2t4Lu0tPt0167mZ2rX+6ZiK/E2+fP3U98x8Lf8RxHEd0AMJ0rpRsPS5pnD2rpPap8lV2xF2fjr5X6ja237ccUaFpVMeiMO3H7l4AY9m7I2rm26qMvbejXaZ8vawrf6+GHa90E6d6xRx/QVODX9fhXarU/Fzx+htIBEvevgq5diiu/s/WKcnjmYxc2Ioqn1RXHd8cQjzuna+tbV1CrC3Bp2Rg5EeSLtPEVR6YnyTHvPp0s269saPuvSrmna/g2czGrjuiunvon00z5YkHzEG5OufRPP6fXqtS0ybmbt65V3XeOa8eZ+pr9XolpsAAEw+j/AEN2LuXpnoGr6vp2Rdz8uxNy9cpy7lEVT2pjyRPEeRmHzuPTf7FZf57d/ivvg8+4vtT8Fn5dTYgNPfO4dN/sVl/nt3+J87j03+xWX+e3f4twgNPT4OHTeY+lWXH/AMbd/i8eV4M3T69TMWrWqWJ8028uZ4/1RLdoCMWu+Cdp9duurQtyZVq5z7WjMs010/HTxP6Gnd9dCN7bSt3civAp1LBo5mcjBmbnER55p+ij4k/wHysqpmiqaaommqJ4mJjiYlwnH126HabvDT8jVdu49rC3Dbpmvi3T2aMnj6mqI8/rQhyse7iZN3HybdVq/aqmiuiqOJpqieJiQUgAAAAAAAAAAAAAAAAAAAAAAAAAAAAAAAAAAAAAAAAAAAAAAAAAAAAAAAAAAAAAAAAAAAAAAAAAAAAAAAAAAAAAAAAAAAAAAAAAAAAAAAHr0rT8nVdSxsDAtVXsrJuRatW6Y5mqqZ4h5EmfA02TbzdUz9251qKqMOfY2J2o7vGTHNVUe9HEfCDe3RPpng9Ods27EUUXdYyKYqzMnjvmr6yJ+thsUAFPJyLOLj138m7bs2bcdqu5cqimmmPTMz5FHVtRxdJ0zJ1DUL1NjExrc3LtyqeIpphA3rb1i1TqDql3GxLt3E29aqmLONTPHjY+ur9M+oEjt6+Els3b96vH0yMjW8iieJ9jcU2o/wCery/BEtZ5fhZ6rN2r2HtfBot893jcmuqePgiEZQEm8Xws9TiuPZe1sKujz+KyqqZ/TTLONt+FJtPULsW9Z0/UNKmeI7fEXqOffp4n9CFgD6e7b3Lou5sKMvQNSxc/Hn6qzXzMe/Hlj4VPe24cbam1NT1vNmItYdmq5xP1VX1NPwzxD5u7Z3Hq+2NTt6hoWffwsqiee1bq4ir1THkmPfbI6o9cNV6gbI07Q87Eoxr1u743MvWqvaZExHtfa8e14nmfLINX69qmTretZuqZ9c3MrLvVXrlUzz3zPLwACT3gO/Tfdv3jH+VcS2RJ8B36c7s/B8f5VaWwDRfhke5Ha/Gdn5FxvRovwyPcjtfjOz8i4CD4AAAPptsH+4m3PxbjfsqV+WHYP9xNufi3G/ZUr8A+e/hJ+7dun77a/Y230IfPbwkvdu3T9+t/saAa0T98Fv3D9ve/kft7iASfvgte4ft/7rI/b3AbXABqTrL1pxemOt4GnZOi39QnLx5yIuW78W+z7aaeOJpnnyNfx4Wmmc9+1M2I9WXT/KxTw2/777f/ABdP7WpHEE4dq+EzsvWMiixqdvN0e5VPEV5FMV2/hqpnu+GG7cLLx87EtZWHet38e7T2qLluqKqao9MS+WKWfgUbjzsrH17QMm5Xcw8Wm3k2O1PPi+1MxVTHq7okEoQAQz8MradvSt4afuDEtdi1qtuab3EcR46jjv8AfmmY+JHdNHw1cSm7040nKn6KxqdNMe9Vbr5+TCFwDI+nGj0bg37t/SrvHisvNtWq+Y7uzNUc/o5Y4yvpTqVvR+pW2M+//wAKzqFma/emqIn9YPpPat0WbVFq1TFFuimKaaY8kRHkh2AHFVUU0zVVMRTEczM+SEe+oPhOaJoedkYG29Ouavfs1TRVfrueLs9qJ7+O6Zn9DferYk5+lZuHFc25yLNdqK4+p7VMxz+l86eoPTXcuxc+7Z1jT704tNUxbzLdM1WrlPp7UeT3pBs3P8KjeV6vnD0zRMaj0VWrlyfj7cOdP8KneNmvnN0vRcmn0U27lufj7co+gJgbW8KzR8qu3a3LomTgTP0V7Fri9RH/ACzxP629dpbw0Dd2HGTt7VMbNo45qpoq9vR91TPfD5lLhoms6joWoWs7R82/hZdueabtmuaZj+IJ3eEtvL/ZHpjmxj3exqGpf7nj8TxMdqPb1R71PPxoAsz6jdR9e6gzptW4LtqucG1NujxdPZiqZnvqmPJz3QwwBzTE1VRFMTMz3REedw2z4M+zKN4dS8Wcu34zTtMp9mX4mOYqmJ9pTPv1fqBIvwZulVrZ237euatZidf1C3FXto78e3Pkpj0TPnbwABSy8mxh41zJy71uzYtU9qu5cqimmmPTMyqoSeE11Yyd0a/kbd0bJqo0HBuTbuTbniMm5HdMz6aY8kQDcO8/Cb2nouRcxtExsnW7tHMTctTFuzz6qp75j3oa8v8AhZazNc+I2xp9FHoryK6p+OIhGgBKnRfCzq8bxre14i19diZPMx8FUfvb06d9UNr7+tTGhZ8ey6Y5rxL0di7T6+PPHrh84nt0fU83RtSx8/TMi5jZliqK7d23PExMA+o41x0K6jWuouzqMu72beq4sxZzLUfXcd1ceqfK2ODzalg42p4GRhZ9mi/i36Jt3LdccxVTPmfP3rv04vdO94XMezFVekZfN3Duz9bz30TPph9C2s/CG2XRvTptqFm3birUMGmcvFq8/apjmafhjmAfPcAH0Q8Hj3Ftqfgs/LqbEa68Hj3Ftqfgs/LqbFAac6wdc8Ppruixo2Rol/UK7uJTleNt34txT2q66ezxNM/Wc8+tuNCXwzvdXw/xVZ/aXQZ/T4Wmmcx2tq5sR6sumf8ApZbtHwlNla5kW8fUPZmj3q54icqmKrfw10zPHwwgyA+qGNftZVi3fxrtF2zcjtUV0VRVTVHpiYVEb/As3Fm6htvW9Gy7ty7Y067arx5qnnsU1xVzTHq5p5+FJABCLwvtqWtC6h2NVxLcUWNYszdrimO6LtM8VfHzTKbqNfhvWKatqbayJiO3Rm3LcT6qrfP/AEwCH4AAAAAAAAAAAAAAAAAAAAAAAAAAAAAAAAAAAAAAAAAAAAAAAAAAAAAAAAAAAAAAAAAAAAAAAAAAAAAAAAAAAAAAAAAAAAAAAAAAAAAAAD6G+DvotGh9Htu2aaJouZFj2Xc58s1XJ7X6ph88n072TRTb2ZoNFH0NOBj0x70W6QXkAEavDP3dewNE0rbGJcqonPmcnJ489umeKafhq5+JEBvLwxL9y71di1XMzRZ0+zTTHo5mqZ/W0aAAAAAAAACTvgO/Trdn4Pj/ACq0t0SPAe+ne6/wfH+VWluA0X4ZHuR2vxnZ+Rcb0aL8Mj3IrX4zs/JuAg+AAAD6bbB/uJtz8W437Klfli2D/cXbn4txv2VK+gPnt4SPu27p+/W/2ND6Evnr4SHu27p+/wBv9lQDWqfngs+4ft/7rI/b3EA0/PBZ9w/b/wB1kft7gNsAAhz4bn999v8A4un9rUji+pWZpuDm1015mFjZFdMcRVdtU1zEejvhQjQtIieY0rAifwej+APm1tnaOv7ny7ePoWk5mZXXPdVbtz2I9c1eSE3vB66W19N9vZE6lXbu6znzTVkTb76bcR5KInz+We9tWzat2bcUWbdFuiPJTREREfA7gApZmTYw8W7k5V2izYtUzXXcrniKYjyzII5eG1qlFraegaVFceNv5lWRNHn7NFExz8daHrZPX3fv+3+/sjMxqpnS8SPY2HE+eiJ76vhnv+JrYBzTVNNUVUzMVRPMTHmcAJ/eD11Jxd97OxrF+9TGuYFumzlWpniauI4i5Eeif1trPl/trX9T21q9jU9Ey7mJmWZ5pronyx6Jjzx6kt+l3hLaPq9uzg70pp0vP4in2XTHNi5Ppnz0/qBIlTyLFrJs1Wci1RdtVxxVRXTFVMx64lT0/OxdRxaMnAybOTj1xzTctVxVTPww9ANWbt6D7C3JVXdr0n+j8mrmfG4FXiuZnzzT9DPxNKbw8FXVsWK7u1NYsZ9EeSxl0+Kuf6o9rP6EvgHzL3Xs3cO0smbO4dJysKee6u5R7Sr3qo7p+Nj76l6jgYmp4lzF1HGs5WNXHFVq9RFVM/BKPPVPwZ9M1O3ez9jVxp2b31ewrlX9TXPopny0fqBDoXPcWh6ltzVr+m61iXcTMszxVbuRx8MemPWtgCZHgVaLTjbK1jWK6KfGZuZ4mmrz9i3THd8dUobp5+CZai30U0uqPLcyMiqff8bVH7gbhABhXWjcNW1+mG4NUtVxRkUY827Mz9fXMUR8rn4HzhqqmqqaqpmapnmZnyynR4X1yqjo5fpp8ledYpq97mZ/XEILAAAAA3T4Jm5K9F6rY+BVXMYurWqsaunzTXETVRPxxMfCnW+b3Ri7VZ6s7Rro+i/pOxT8E1xE/ol9IQHFVMVUzTVETTMcTE+SXID5pdTdHjb/AFC3DpdPHYxs27TRxH1M1c0/omGMNpeE5j04/W7ckU/V1Wbk+/NmiWrQfQ/wePcW2p+DT+0qbFa68Hf3Ftqfg0/tKmxQEJvDOifmrYU+b+irX7S6my8mXpmBmXIuZmDi37kR2Yqu2qap49HMwD5bMi2rsrcW68y3j6DpGXlTXP8AxKbcxbpj0zVPdEPpDGhaRTPNOl4ET6Yx6P4Pfat0WqIotUU0UR5KaY4iAa16C9NY6b7UuY2Tdpvapm1xeyq6PoYmI4imPe72zAARd8N/VLUYG2NJif66q5dyqo9FMRFMfpmfiSZ1LOxtMwMjNz71FjFsUTcuXK54immHzw61b4r39v7O1WjtRhUf1GJRPmtU+Sffnvn4QYGAAAAAAAAAAAAAAAAAAAAAAAAAAAAAAAAAAAAAAAAAAAAAAAAAAAAAAAAAAAAAAAAAAAAAAAAAAAAAAAAAAAAAAAAAAAAAAAAAAAAAAAA+lXSjUadW6abYzaPJc06zE+/TRFM/piXzVTc8D3c9OrdOLmjXbnOVpN+qiKZnv8VXPap4j0RPagG+AAQ68NXQbmNvDR9cooq8RmYvseqvzRXbqmePiqj4kcH0f6vbFxuoOy8rSL0028mP63FvTH/Dux5PgnyS+em5dB1LbWtZOlazjV42ZYq7NVFUd0+uJ88T6QWsAAAAAAAEnPAen/tzdcef2NY+VWlwhv4E2bRZ3xruHXVEV5GBFdMensXI5/RUmQA0b4Y1M1dIaZiOYp1KxM+r2tcfvbyYF112vc3d0u1vTMajt5cW4yLFPPHNdE9qI+HiY+EHzoHauiq3XVRcpmmumeKqao4mJ9EuoAMh2BtrJ3dvDTNFw7c11ZN6mK5j6m3z7aqfRERyD6MbFpmjZG3qao4qp07HiY//AIqV7U8WxRjY1mxZji3aoiimPRERxCoA+evhHzz1s3Tx/wB/b/ZUPoU+cvXPNoz+r268i1VFVHs6uiJjz9nin/pBgqfngs+4ft/7rI/b3EA0/PBZ9w/b/wB1kft7gNsAADSXXrrRndMte03T8LSMbOpy8ab9Vd67VTNM9qaeIiI9S1dH/CJs7y3PGjbg0/G0q5fp4xblu7NVNdf1s8+T1AkEADHN9710PY2jxqW48yMexVV2LdMUzVXdq457NMR5Z4hDXrX1z1Tf1NzTNLor07QOe+1FX9Zf+7n0epNDe21tN3ltzL0bWbMXMa/T3Tx7a3V5qqfRMPnt1P2NqXT/AHTkaRqdM1URM149+I9ret+aqP3wDEQAAABe9V2rruk6ThapqOlZWPp2bRFyxkVUe0rpnyd/m96VkBfds7u3Bte/F3b+r5mBV6LVyYpn36fJPxNy7W8KPden9i3r2Dg6rajiJriJs3OPfjumfgR9ATv2V4RWydxVW7OdfvaLl1d3YzI9pz6q47vj4bgxcmxl2KL+Let37Ncc03LdUVU1R6pjufLBm3TrqZuXYWfbu6NnXKsTmPGYd2qarVyPPHHmn1wD6PDHenu6cbemz9N17Dom3by7fNVuZ76KomYqp+CYlkQNb9bumOB1E2zdoi3Rb1rHomvEyYjv7X1kz56ZfPrNxb2FmX8XKom3fsV1W7lE+WmqJ4mH1NQF8KTSLWkdZNX9jx2aMyi3l8f5qqfbfpiQalTr8ETKpv8ARrEtRMTOPmX7cx6Oau1/1IKJVeBJuGiI3Bt27VxXVNGbZiZ8vd2a4iP9MglUADVPhQaVXqvRjW4tfR4k28v4KK45/RMoAvqXqeDY1PTcrBy6Irx8m1VZuU+mmqOJ/W+bvUvaGZsfeOfoubRVFNquZsXJjuu25+hqj4AYsAAADZPg6aVd1brJtqi1T2qce/7Kr9VNuJq5+OIfQtGrwPNgXtM03L3dqdmaL2dR4nDpqjvi1zzVX8Mxx70JKgA8urZ9nS9Ly8/KqimxjWqr1czPHdTHM/qB8/vCNy/ZnWrdFcTzFGRTZj/kt00z+mJa2XHcep3Na3BqWp3pmbmZkXL88+X21Uz+9bgfQ/wd/cW2p+DT+0qbFa68Hj3Ftqfgs/tKmxQAaH659c8/pvu/H0bC0bFzbdzDoyZu3b1VMxNVddPHER/l/SDfA0P0W8ICxvvcFei63g2NLzbsc4k27s1U3Z89Pf8AVehvgBivULfug7B0u3m7iypsxemabFqimaq7tUR3xTEe/HxsqY31B2dpm+Ns5Oj6vaiq3cjm3diPbWq/NVAIWdaOtur9Qq6sDFoq07Qaauacamr21313J8/veRqJkvUHZ2p7H3Nk6Pq9qabluebd2I9rdo81UMaAAAAAAAAAAAAAAAAAAAAAAAAAAAAAAAAAAAAAAAAAAAAAAAAAAAAAAAAAAAAAAAAAAAAAAAAAAAAAAAAAAAAAAAAAAAAAAAAAAAAAAAAAbF6Eb9q6f78xs69VP9G5P+75lEfWTP0X/LPe10A+p+JkWczFtZOLcpu2LtMV0V0zzFVM98TCqh74NXWynQosbV3XfmNMmezh5Vc/8CZ+oq/y/qTAt10XbdNy1VTXbqiKqaqZ5iYnyTEg7MM6j9N9u9QNP8RruJ/vFET4rLte1u259U+ePVLMwEK95+DBunTL1y5tvJxtXxI5mmmqqLN6I80TE90z70tY6n0v3xpkz7M2prFMemjGquR8dPMPpEA+ZtrY+67tcUW9s63VVPmjAu/ysh0vot1D1K5RTZ2tn2oq+qyIizEe/wBqYfREBDnafgr6/l3KLm5tVw9Os8+2t4/9dc49/upj9K1+EH0QtbC03C1fblWTk6XxFrL8bPaqt1+auePNP6E2nj1rTMTWtJy9N1KzTew8q3Nq7bqjummQfLcZz1h2Dl9PN45GmX4qqwrkzdw78x3XLfPd8MeSWDA2N4Pm5KNr9WNDzL9cUY1+5OJeqnyRTcjs8/Hw+hz5WU1VUVRVRM01RPMTE8TEp++Dv1Hsb72ZYs5N2n+m9Oops5VuZ764jupuRHon9YNrAA0F1e8HXTd26hf1fbeVb0rU7s9q7aqo5s3avPPd30z73c0bmeDb1GsXJps6fhZVMT3VWsy3ET/qmJTvAQe0TwY99ZuRRTqX9HabZn6KuvIi7MfBRzz8aTPSHpHonTbErrxJqzNVvU8Xsy7TETx9bTHmhsgAABad2a1Y27tnU9Yy6ops4WPXemZ8kzEd0fDPEfC+ZOoZdzP1DJzL883ci7Vdr9+qZmf1pP8AhedS7V+inZej34r7NcXNQronuiY+ht8/plFgBP3wWvcP2/7+R+3uIBJ/eC37h+3vfyP29wG1gAQ58Nv+++3/AMXT+1qR0s3K7N2i7arqouUVRVTVTPE0zHfEwkX4bf8Affb/AOLp/a1I4gnZ4OHVejfegxperXaadwYNERXzPHsiiPJXHr9LdD5g7W1/UNsa9h6vpF+qzmY1cV0zE90x56Z9MS+hnSnfmn9QtqWNVwZii/TxRlY/PfZueePenywDMmDdXunen9Rdr3cDLppt51qJrxMnjvt1/wAJ87OQHy/3NoOoba1zL0nWMeqxmY1c0V0z5/RMemJWtPTwhuk9nqBoU52mW6Le4sOiZs18cePp/wC7q/dKCOZjX8LKu42Xars5FqqaK7dccTTMeWJBRZf0m2jd3vv3S9Ft0z4m5c8ZkVR9Tap76p+Lu+FiCZfgd7I/ona2TujNtcZeqT4vH7Ud9NimfLHvz+oG/Lmk4F3SqdMv4lm7gU24tRYuURVT2YjiI4n1NGb+8GTbetVXcnbOTc0TKq5mLXHjLEz73lpj3pSAAQM3J4O3UDR665xtOs6pYieKa8O9TMzHp7NXEsH1Dp5vLTq+zmbW1q3P4Hcqj44jh9KwHzIt7P3Lcrim3t7WKqp80YVz+VnmzOge+dx5dunJ0u5pOHMxNeRne04p9MU/RT8SfYDH9hbXxdm7S07QcGqa7OJb7M11R311TMzNU+/MyyAAED/CzzrWb1mz6LNcVexsaxYq481UU9qY/wDMmvvHcWDtTbedrOqXabeNi25r4meJrnzUx6ZmXzZ3VrWRuPcmpaxmTM382/Veq9XM90fBHEAtTK+l27b+yN8aZrljmaLFzs36I+rtVd1UfF3/AAMUAfUnSdRxdW0zF1DT7tN7EybcXbddM8xNMw9aGHgz9ZKdrX6dtbmvz/Q16v8A3fIqnn2NXPmn/LP6EzbVyi9aouWa6bluuIqprpnmKonzxIOzAOrvS/SOpOkU2M7nH1GxE+xsyiPbUT6J9NM+hn4D59726G742tfuzOk3dSw6eZjJwaZuxMemaY9tHvcNe39I1LHr7F/T8y1X9bXYqpn9MPqMA+ZWj7O3JrV+mzpehalk11eTsY1XHx8cN/dJPBpzbuZY1Lf00WMaiYrp0+3VFVdz1VzHdEepLcBTxrFrFx7djGt02rNumKKKKY4imI8kQqAAjz4Xm/7ej7Xp2rg3Y9n6nHORFM99uxE+Sfup/Q2d1Y6jaV0629czc+um5m3ImMXEifbXav3U+mXz63ZuHUN07gzNY1e9N3Lyq5rqnnupjzUx6IgFoAB9D/B49xban4LPy6mxWu/B59xfan4LPy6mxAEJfDO91fD/ABVZ/aXU2kJfDO91fD/FVn9pdBovEyb2HlWsnFu1Wr9qqK6K6Z4mmY8kwnp4PfVOz1B23Tj59ymncGFTFOTR/wB7HmuR7/n9aAq+7K3PqOztyYetaPdm3k49XPHPdXT56Z9Ug+m4xfpvvTTt+bVxdZ0yuPbx2b1nn21m556ZZQDXfWzpphdR9sV40xRZ1bHia8PJ476avrZ/yy+f2u6RnaDq+Vpmq2K8fNxq5t3LdUcTEx+59RWkfCO6Q298aVVrOi2qadw4due6O72TRH1E+uPN8QIMjvetXLF65avUVUXbdU01UVRxNMx3TEugAAAAAAAAAAAAAAAAAAAAAAAAAAAAAAAAAAAAAAAAAAAAAAAAAAAAAAAAAAAAAAAAAAAAAAAAAAAAAAAAAAAAAAAAAAAAAAAAAAAAAAAADcnSDrvrmxYt6fqUV6rocTxFmur+ssx/kqn9U9zTYD6QbC6nbV3xYoq0TVLU5MxHaxL09i9TPo7M+X4GaPldZu3LF2m7ZuV27lM8010TxMT6phsjavW/f227dFrF1y5l49Edmm1nUxepiPfn236QfQkRA0vwsNbtU0U6ptzT8mY+iqs3q7Uz8ExUyK14WunzTHjdp5cVf5cymY+QCToi9k+FriRRPsXaV+a/N4zNiI/RQxnVvCt3JftVU6ZoWl4dU+Su5XXemPkwCY7B9+9U9p7IsVzrGqWqsqI9riWJi5dqn7mPJ8KE+6es+/Ny01287X8ixj1xxNnEiLFP/l7/ANLX1y5XduVV3a6q66p5mqqeZmfXINm9bureb1Nz8eirEt4elYdVVWNa7qrnNXdM1VeuIjuju7mrwAX3Ze6tV2br+Pq+h5E2cq1PfH1NdPnpqjzxKxAJ9dJuuG3d9Y1rGy71vS9b44rxb1fFNc+miqfLHq8rbT5WU1TTVFVMzFUTzEx5YbG2f1p31tW3RZwdZuZOLTHFNjNp8dREernvj4JB9DREXSfCy1W3FFOrbZw7/Ee2qx8iq1M/BMVMht+FnpMx/WbWz6Z9FOVRP7oBJkRhyvC00+KJ9i7Uyqq/N4zMppj9FMsR1zwqd0ZdqaNI0jTNPmfJXXNV+qPj4j9AJj5eTYw8eu/l3rdixRHNVy5VFNNMeuZRr61+EZiYePf0fYV2MjLqiaLmoxHtLXp8X6Z9aNu7+oG6d33JncGs5WVb5mYs9rs2496iOIYsCrk37uTkXL+RcquXrlU1V11TzNUz5ZmVIAE/vBc9w/bvv5H7e4gC2tsfrvu/Zm2sTQtIp0yrBxu14vx+PNVUdqqap5mKo88yCfwg988/v76zRfzWr+c+ef39/wB3ov5rV/OC9+G5/ffb/wCLp/a1I4sw6ldQta6ialiZ24IxYv41rxNHse3NEdnmZ8kzPnlh4DPOjvUPO6d7ss59iqq5p92Yt5mPz3XKPTHrjywwMB9RNA1jB1/R8TVNKv038LJoi5brp88T+97r123ZtVXL1dNu3RHNVdc8REemZQS6E9asjpxay9P1LHv6ho12JuW7FuqIqtXfVz5InzrN1Q6zbn39duWMjInB0mZ9rhY9UxTMf558tUgkT1W8I/RdveO0/aVNGr6nHNM3+f6i1Pv/AFUx6u7uQ+3NrmduXXs3WNWuU3M7MueMu1U0xTEz5O6I8nkWsAbk6M9dNX2Bbt6ZqFurU9Bie6zVVxcsR/kn0eqe5psB9HdjdU9o70s0To+r2IyZjmcW/VFu7T/yz5fg5Zu+VtFVVFcVUVTTVTPMTE8TEs52z1b3ztum3Rpm4s2bFE8xZyKvHUfFXyD6MiF2jeFPu7Fo7Op6ZpOf/mimq1V+iZj9DKcLwtaOx/v20au36bOd3fpoBKgReveFridifEbRvzX5u3nREfooY/qXhYa9doqp07bum40z5Krt6u7x8XZBMFhe/wDqbtfYuLXXreo2vZURPYxLU9u7XPo7MeT35Qt3R103/uG3Vav63Xh2KommbWDRFmJj349t+lrW/eu5F6u7kXK7t2ueaq66pqqqn1zINkdZererdSdQppuUzh6NZq5sYdNXP/NXPnlrMAAAG5OjvXbWthxb0/UYr1TQonjxNdX9ZZj/ACVT+qe5psB9Ith9Strb4xqK9D1O1VkTHtsW7PYvUz6OzPl+BmT5X2L13HvUXce5Xau0TzTXRVNNVM+qYbM2t113/t23Tas6zObYpiIi1nUReiIj1z7b9IPoIIiaZ4WWr24ojU9s4N/j6KqxkV25n4Jipf6PC006afb7Uy4n1ZlM/wDSCTgizneFra8XPsDaVzt+ab2bHH6KGIa74Um8c2ns6Vg6XpsfXRRVeq+OqeP0Amhk5FnFsV3sq9bs2aI5quXKoppj35lojqn4R+g7etXsLak06xqnfT42P+Ban08/VTHohEzdW+dz7rudrcGtZuZT5rddziiPepjiP0MaBed2bm1bdmsXtT17MuZWXcny1T3Ux9bTHmhZgAAB9EPB59xfan4LPy6mxEB9o9f95bV25g6JplOlzhYdHi7XjseqqrjmZ75iqOfKu/zz+/vrNF/Nav5wThQl8M73V8L8VWv2l1Q+ef39/wB3ov5rV/O1t1G3zq3UDXbera9GNGXbsU48ex7c0U9iJmY7pmfPVIMVABsfof1KyunO6qMiqa7ukZMxRmWInumn6+I+uh9A9J1HF1bTcbP0+9RfxMiiLlq5RPMVUy+WrdvQ7rnkdPdLzNL1XGv6lpsxNeLboriJtXPRzP1MgnHkX7WNYrvZN2i1Zojmqu5VFNNMemZnyI9dVvCU0rRfHafsu3RqefHNM5df/Atz6vrp/Qjx1N6u7n6gX6qNQyZxdN59pg48zTbiP83nqn32uwe/XtWy9d1rN1XUrkXM3Mu1Xr1cUxTE1VTzPdHkeAAAAAAAAAAAAAAAAAAAAAAAAAAAAAAAAAAAAAAAAAAAAAAAAAAAAAAAAAAAAAAAAAAAAAAAAAAAAAAAAAAAAAAAAAAAAAAAAAAAAAAAAAAAAAAAAAAAAAAAAAAAAAAAAAAAAAAAAAAAAAAAAAAAAAAAAAAAAAAAAAAAAAAAAAAAAAAAAAAAAAAAAAAAAAAAAAAAAAAAAAAAAAAAAAAAAAAAAAAAAAAAAAAAAAAAAAAAAAAAAAAAAAAAAAAAAAAAAAAAAAAAAAAAAAAAAAAAAAAAAAAAAAAAAAAAAAAAAAAAAAAAAAAAAAAAAAAAAAAAAAAAAAAAAAAAAAAAAAAAAAAAAAAAAAAAAAAAAAAAAAAAAAAAAAAAAAAAAAAAAAAAAAAAAAAAAAAAAAAAAAAAAAAAAAAAAAAAAAAAAAAAAAAAAAAAAAAAAAAAAAAAAAAAAAAAAAAAAAAAAAAAAAAAAAAAAAAAAAAAAAAAAAAAAAAAAAAAAAAAAAAAAAAAABWs4t+9RVXZsXblFPdNVFEzEKddNVE8V0zTPomOAdQAAABzETVMRTEzM90RD1/0XqH+ByvyNX8AeMez+i9Q/wADlfkav4H9F6h/gcr8jV/AHjHNVM01TTVExVE8TE+WJcAAAAAAAAAAAAAAAAAAAAAAAAAAAAAAAAAAAAAAAAAAAAAAAAAAAAAAAAAAAAAAAAAAAAAAAAAAAAAAAAAAAAAAAAAAAAAAAAAAAAAAAAAAAAAAAAAAAAAAANmdIOltzf8Abz8m/nVYGFjTFFNdNrtzXXPfx3zHdEfra2s2q7963atUzXcrqimmmPLMz3RCdHTLbVG09ladpcREX6aPGX59Nyrvq/h8Cs7UZvXluGiLM6XKp4eaI5z8PS28HYi7X4XKGp/nbMT7Zcj80j+c+dsxPtlv/mkfzpAjn/1ozX9b2U/JKd52fJ96OGu+DtTg6Nm5WBrt3JyrNqq5bs1Y0UxXMRzxz2p4+JHuqJpmYqiYmO6YnzPomhV1w2vO19/51u1R2cPLn2VY7u7iryx8E8rbspn1/G3a8Pi6t6rTWOUdscNO31tHG4am3EVUQwABeUcAAMz6SbUxN57zsaRqF6/Zx67Vy5NdiYir2sc8d8TH6GGNqeDT7qmJ+DXvko/NrtdnBXrludKopmYn0MtimKrlMT1tq/O6bY+yes/lLf8AIfO6bY+yes/67f8AI3WOR/WLM/1p9ib71s+SjvvroXt/QNn6tq2HqGqV5GHj1XqKbtduaZmPNPFMSjmnL1e9zHcv4Fc/Ug0v+yOOxGNw9yvEVzVMVaceyEZjrdNuuIpjQAW1pMq6Ybbq3VvfTNM7M1WKrkXL/dzxbp76v4fCl9qXTjZ+pczlbd07mY45tWotT/5eGvfBj2fOl7fvbgzLfGVqHtbMTHfTZifL8Mt3OUbUZzcu47cw9cxFvhwnTj08vV6E1g7ERb1qjm1HqnQHZ+XTV7E9n4Nc+Sbd/tRHwVRLENV8G6rnnSdwxMfW5OPx+mmf3JFrJvXXbW2tralq1+Y4xrU1UxP1Vfkpj4+GhhNoM1ium3buzMzOkROk8+1lrwtnTWaUHN16Je23uHO0jJvWb17EueLrrtTM0zPHm5WlXzsq9nZt/Kyaprv366rldU+eZnmVB2O1FcURFydatOPagZ014JS9CdkbZ1rprp+dquiYWXmV3L0V3rtHaqq4uVRH6OIbA+Znsv7WtN/JQsPg4e5Npn32/wDtamzXGc3x2Jox96mm5VERVV0z1p6xbom3TMxHKGIfMz2X9rWm/koag8JPaWg7f21pWRomlYuDeuZc2667NHZmqnsVTxPwwkc0h4WMf/ozSJ9GoRH/APXW2NnsbiK8ys013KpiZ6Znql84q3TFqqYhp3Qeju8tb0zF1DDwLFOJlW6btqu5k0U9qmY5ieOeY7mQ4Xg9btvVf7zlaVjU+u9VVP6KW3vBv1mdU6aY1i5XFV3T7teNMein6Kn9FX6G0kpmW1eZYbE3MPG7G7Mxy9XOephs4K1XRFXHig/1M6fZ+wc3CsZ+TZyqcq3NdFyzExTExPEx3/AwtLTwntE/pHYNvULdMzd06/FyeI+oq9rV/wBKJa47PZlXmOCi7cnwomYn++zRoYq1Fq5uxyEoNK8HzbWXpeHkXdS1eLl6zRcq7NduI5mmJnj2iL76C7e+kGm/g1r5EIjbDMMTgqLU4euadZnXT0M+BtUXJq341aj+d02v9k9Z/KW/5D53TbH2T1j8pb/kbrFG+sWZ/rT7Ej3rZ8lpT53TbH2T1j8pb/kPndNr/ZPWfylv+RusPrFmf60+w71s+SjvvzoZt7b+ztX1bDz9UryMOxVdopu125pmY808URL2dHel20dydOdK1TVtMrvZ1+b3jLnsm5Tz2btVMd1NURHdTHmbM6w+5huX8DrWjwePch0P38j9vcSlWb425lM3qrtW9FyI1idJ03ZnTgwxYtxf3d3hp8XX5iOwvsPc/O738x8xHYX2Hufnd7+ZskQf0xmH69f8p+bZ7ha8mPU1r8xDYX2Hufnd7+Y+YhsL7D3Pzu9/M2UH0zmH69f8p+Z3C15Meprb5iOwvsPc/O738x8xHYX2Hr/O738zZIfTGYfr1/yn5ncLXkx6kMeu+2dL2nvijT9DsVY+JViW7vYmuqv20zVE99UzPmhrlt/wo/dLtfi+18qtqB2DJbld3AWa7k6zNMazKCxERTdqiAFbCxruZmWMXHp7V69cpt0R6aqp4j9MpRhTj8EfQf6J6S2cu5b7N7U8i5kzM/VUR7Sn9FM/G3Fe0/Dv/wDGxMe593bpn9zw7P0a3t7auk6RZpimjCxrdniPTFMcz8fK7g0F4WlOjaL0uqt2dNwLWdn5Vuzarpx6IriInt1TExHPkp/Shpo2BXqmsYOn2q6aLmXft2KaqvJTNdUUxM/Gkd4Yl/XNY1/T8bD0vULmh6dbmZyqLFVVmu9VPtuKuOOaYiIloLYn9+NvfjHH/a0g3386Zq/20YH5tX/E+dM1j7aNP/Nq/wCKXgCKWgeC3q2l67p2oV7jwLtOJk27824x647XZqirjnn1JWgAACKm4vBc1XVtwanqNrceBat5eVdyKbc49czRFdc1RHl83K3fOmax9tGn/m1f8UvAEJt9+Dfqm0to6nr17cGFk28G142q1RYqpmqOYjiJmfW0I+ifhBe4zuz8D/6qXzsAbDwejHULOwsfLxdsZVzHyLdN23X4y3HapqjmJ4mrmO6fO14+neyf7m6D+AY/7OkGhvBx6NW9P0jV7nUTa+Jczbl+inHt51qi92KIp75jyxHMz+huH5l2xPtP0H8xt/wZiAiV4RHSLVNS3TgU9PdnW7enWMXs3q8Om3ZoruTVM+SZjniOPjlqn5hvUj7Vcr8ra/nfQsB89J6HdSIiZ/2Vy/ytr+Zvbwf+kOydydL9O1PcGh+y9Tu3b1N65cv3aJiablVPZ7NNURHERx5PLykq1h4N/uXY/wCH5v8A6i4Dr8wPpp9rNH51f/nPmBdNPtao/O7/APO2itO6dxaVtXRrura/lxh6fammmu9NFVURNU8R3UxM+WY8wMD+YD00+1qj87v/AM58wHpp9rVH53f/AJ3q+bj03+2rE/JXf5T5uPTf7asT8ld/lB5vmBdNPtao/O7/APOfMC6afazR+d3/AOdlez9+bZ3lcyqNs6ta1CrFimq9FuiunsRVzxz2ojy8T8TJgak1boN04t6VmV2duUW7lNmuaa4yr0zTMUzxPfWgM+pGs/SfO+8XPky+W4CR/gmbC2zvHA3Je3NpNnULmNdsUWZuV1R2IqiuZ4iJjy8R8SOCW3gO/Sndv3/G+TcBtf5iHTj7VcP8pc/mPmIdOPtVw/ylz+ZscBrj5h/Tj7VcP8pc/mPmIdOPtVw/ylz+Z4Nzde9j7b1/O0fUsnOjNw7k2rsW8WqqmKo8sRPnZf0+3xo2/tGu6pt65frxLV+ceqb1ubc9uIpme6fVVAMf+Yh04+1XD/KXP5nPzEOnH2q4f5S5/M2MAi74PHTTaG48LdteuaJYzasPWr2LYm5XXHYt0xHFMcTHpbb+Yh04+1XD/KXP5mKeCv8AS7fP/iLI/VS3kDXHzEOnH2q4f5S5/MfMP6cfarh/lLn8zY7UGq+ERsLS9UzMDKydQjIxb1di52cSqY7VNU0zxPvwC8fMQ6cfarh/lLn8x8xDpx9quH+UufzMv2huPA3btzD1zR6rlWBlxVNqblHZqmKappnmPN30yvANR7t6L9PcXaus5GNtnFtX7WHeuW66blzmmqKJmJj23phAd9Ot7f3M1/8AF+R+zqfMUAAAAAAAAAAAAAAAAAAAAAAAAAAAAAAAAAAAAAAAAAAAAAAAAAAAAAAAAAAAAAAAAAAAAAAAAAAAAAAAAAAAAG1fB02r/T++aM3It9rC0yPH1cx3VXPqI+Pv+BL9rzoVtX/ZfYWJF632c7O/3m/zHfHMe1pn3o/W2G4ztLmPf+OqmmfBp8GPRzn0yn8Ja7nbjXnIBTMVUxNMxMT3xMedX2yNPeExteNX2ZTq9ijnK0urt1TEd82p7qvi7pbhUM/Es52FfxMmmK7F+iq3XTPniY4lu5djKsDiaMRT+WfZ0x6mO7bi5RNM9L55C9700K7trdGpaTfieca9NNMz9VT5aZ+LhZHdrdym7RFyidYmNYVyYmJ0kAfbwbT8Gr3VMP8AB73yWrG0/Bq91TD/AAe98hF53+HX/wBs+5mw/wBrT2pggOGrExDq97mO5fwK5+pBpOXq/wC5juX8Cr/Ug06fsN90u/u+EIjMfHjsGYdK9n3t6buxcCmmqMOiYu5VyPqbceX4Z8jFcPGvZmVaxsW3Vdv3aoooopjmapnzJpdHti2tkbYos3Ypq1PJ4uZVz1+amPVCW2jziMsw07s/4lXCPn6PewYWx3avjyhm+Jj2sTFtY+PRFuzapiiimPJERHEQqg43MzM6ynhG3wpN3eOy8TbGHc/q7PGRlcT5ap+hpn3vK33u7XsXbO3c3Vs6uKbWPbmqIn6urzUx78oM5l3U92bkyL9uxfzdSzrtVzxdqia66pnv4iI754j9S57HZbF2/OMu+Lb5dv8A1HwaGPu7tPc45ytAy+1003pd+h21qcfdWZp/W9lnpHvq7Mdnb2RH3dy3T+up0WrMsHT416mP6o+aKi1XP5Z9SRng4e5Npn32/wDtamzWD9GNAz9s9P8AB0vV7UWsy1XcqrpiqKojtVzVHfHvs4cXza5Tcx16uidYmqqYn0p+xExbpieoaT8K+Odi6XPo1Gn9ncbsYR1d2Td35tuxpmPl28S5ayab/jLlE1RxFNUccR90+8lxFvDY61euzpTE8ZeYima7c0xzao8ErUqoyNwaZP0M0W8mn34maZ/XCRzQm2+hOtaBlV5Olb1rwMiuibdVzHw5mZp5ju7649C+3ekOrZvfqnULX8ifP2JmiPi7cpjOoy/HYyrE0YiIirT8tUzwjTqiPawYfutu3FE0+2GxN6YONqm1NVwMyuii1k41dvmuriOZju/TwgPcom3cqoq45pmYnieYSrnwftDv1xXqGua3lz/nu0fvplprrlsrTNj7kwsHR68iuxfxYvT4+uKpie3VT5YiPQntk7+Ew9yrC2bs1zVx8XSI059M/wBw1sbTXVEV1U6aedrdMLResuxrGk4Fi9rFVF2ixboqpnGu90xTET39nhD1eNn6bXrG6tJ0+1T2qsjKt0certRz+jlYs6yjD5lbirETMRRrPDT084nqauHv12p8DpT6tV03LdFdH0NURVHdx3S7ERFMRERxEd0QOKSsDG94730DZ04cbhzZxZy+34ni1Xc7XZ7Pa+hiePoo8rHPm17C+zVX5re/lan8LDUab259H0+ivmcbGquV0+ia6u79FLRToOT7JYXGYK3iL1VUVVceExpznTo6kXfxtdu5NNMRpCVHUnqzs7WNi61p2m6pVey8nGqt2qPY9ynmqfXNMQsPRncW+7Ww8TF23tbD1HTsa5copyLuZRamqqa5qmOzNUT3TV5UdUvPBj9y+3+GXv3NjOMtw2S5bNNunfia4nSvr0mPy7r5sXa8Re1mdOHR/cq3+0fVT7RtO/8AmVv+Y/2j6qfaNpv/AMyt/wAzaQpP0jb/ANNR/wCf/wBpDuU+XPs+SNed4Q2u4GbkYmXt3Bt5GPcqtXKJv1T2aqZ4mOY7vLDOOjnVbN39rubgZem42JRj43j4qtV1VTM9qmnjv99GXf39+txfjHI/a1No+Cf/AH11f8Xz+0oXvNckwFrLK8RbtRFW7E8583nRtnEXar0UzPBKUBzBMIleFH7pdr8AtfKragbf8KP3S7X4Ba+VW1A7fkP4bY/bCvYn7WrtG1/Bk2zO5OrOmVXLfaxdO5zbvNPMe1+hiffqmPiaoTP8Dfac6XsvN3Dk2+zkard7FqZjiYs0d3xTVzPwJdgSFeXVcynT9MysuqO1Fm3VXFPPHamI7qY9cz3fC9TGNcya9R3Tpmh41VVNFjjUsy5TPdTTRXHi7fv1V9/o4on1cheNFxKsbR8exkU0zemjtX+OZiq5V7a5PfM901TVPwsc1zpns7WM6zn5mhYdGdYrpu0ZNmnxVdNVM8xPNPHPfHnZkxHqbui1tbQsW7XbovV52dj4FNqqqY7UXbkU18cd/MUdqefNPHl8gMuABhvVPfVGwNCxtSr0rN1Wb+TGPFjEjmuOaaqu1Pd5I7PHww1d88ra+0XcPxR/BIMBHz55W19ou4fij+B88ra+0XcP+mP4JBgLRtHWo3FtrT9XjFu4nsu1FzxF36O3/ln1ruANe+EF7jO7PwT/AKqXztfRLwgvcZ3Z+Cf9VL52gJ+7A6v7FydG27pFrX7M6ncsY+LTj+Judqbs000xT9Dxzz3eVAJt7wWNAnW+r+m3qqapsabRXmVzEd0TTHFPP/NMfECezy6tqOJpGmZWo6lfpx8LFt1Xb12vyUURHMy9TTPhZa9/Q/SPLxbdyKb+p37eLTHnmnntVfop/SC+fNz6bfbTjfkbv8h83Ppt9tON+RvfyMC6KdHNibh6W7f1XWNBoytQyrNVd69ORepmqfGVR5IriI7oiO6HPWno1sTQOmGv6ro+hxi5+JYi5au05F2rie1THkqqmPODOrnXXpxTRVVTufHrmI+hizd5n46VDwZ71GT0mwr9mZm3dzMyumZjjmJyK5hAG1brvXaLdqiqu5XMU000xzNUz5IiPPKfvgx4GXpnR3ScTUMa/i5NF2/NVq9bmiqObtUx3T6pgG1GPb92jp2+NtZGhazVkU4V+qiuuceuKa+aaoqjiZifPEeZkIDRPzruw/8AEa7+dUf/AEz513Yf+I1386o/+m3sAwLpj0s0Hpvcz6tv3c+v2bFMXYyrtNf0PPHHFMceWWegDx6z9J877xc+TL5bvqTrETOkZ0U0zVVNiuIiI5mfaz5IfMPVdK1DSMmMfVcHKwr8x2ot5Fqq3VMeniY8gPElt4Dv0p3b9/xvk3ESUm/A93Zt/bmnbmta/rOBptd+7YqtRlX6bfbiIriZjmfNzHxglyMO+ahsT7cNB/Prf8T5qOxPtw0H8+t/xBh26fB52buXcWoa1qN/WIzM67N67FrIoppiqfRE0TxHws16a7C0rp5ot/StCuZVeJdvzkT7JriuqKppiJ74iPNTCn81HYf24aD+fW/4nzUdh/bhoP59b/iDMRYNB3ntncOZViaFr+majk00zXNrFyaLlUUx5+Innjvjv9a/g0b4K/0u3z/4iyP1Ut5NP+DjoeqaHhbvo1jT8rCqytavZNiL9uaPGW6ojiqOfeltbVNRwtJwLudquZj4WFa4m5fyLkW7dHMxEc1T3R3zEfCD1NKat4NmyNU1XM1DJyNai/l3q79zsZNER2qqpqniOx5OZbH0bfm09b1G1gaPuPSc7Nu89ixj5VFddXETM8RE890RM/AyQFk2XtrC2htnB0LS679eFhxVTam/VFVfE1TV3zERz31T5l7Hk1bUsHR9Pu52q5mPhYVrjxl/IuRboo5mIjmqe6OZmI+EHg3t/czX/wAX5H7Op8xX0N3d1K2TkbT1qzj7r0W7euYV6iii3mUVVVTNExERETy+eQAAAAAAAAAAAAAAAAAAAAAAAAAAAAAAAAAAAAAAAAAAAAAAAAAAAAAAAAAAAAAAAAAAAAAAAAAAAAAAAAAADOujO1p3XvzBxrlE1YePPsjInzdmmeePhniGCpaeDVtT+hdnVavk2+MzVJ7cTMd8Wo+hj4e+UFtFmPeGBrrpnwquEds/KOLZwtrutyI6IbgpiKaYimIiI7oiPMA4sn2J9U9yU7V2NqepRVEX/F+KsR6blXdH8fgWzodueNz9P8G5dr7WZiR7Fv8AM9/NPkn4Y4ai8Kfc3srWsHb2PXzaxKfH34jz3KvJHwR+tavBm3POk7zr0i/Xxi6pT2aYme6LtPfT8ccwu1vIN7IpxGn+Jrv/ANMcNPVrKPnE6Ynd6OSWICkpBHPwqtr8V6fuXGt90/7rkzEefy0TP6YR3T331oFrc+09S0m9Ec5FqYtzP1Ncd9M/HwgdmY13Dy72NkUzRes1zbrpnzTE8S6vsdmHfODnD1T4Vv3Ty+MIXH2ty5vR0qIC3tEbT8Gr3VcP8HvfIasbT8Gr3VcP8HvfIRed/h1/9tXuZsP9rT2pggOGrExDq/7mO5fwKtBpOXq/7mO5fwKtBp0/Yb7pc/d8IRGY+PHYvG0dwZW19wYmr4NuzcyMeZmmm9R2qe+OJ96ePOlR0+61aDubxWLqVUaVqVXEdi7V/V1z/lq/ih+J3NsiwuaRrd4VRymOf/cNaxia7PLk+idNUVUxVTMTTMcxMeSXLF+l1U19ONs1VTNVU6fYmZme+faQyhxi/b7ldqt666TMepP0zvREsd3ps/S944VnE1uMivGtVzXFu1dm3Ez6Z48vDBMbp1oOyd/7QzdAoybNzIycjHu03Lvbpqp9jXavP3xMTTHk9MtusR3hPG7tj/jC/wD+kvJDAY3EUxOHiudyaa+GvDxZ6GK5bp8bTjrHvZcAimYAAAAAARa8LD++2k/i6P2laUqLPhYTE720nifJp8RP5StaNj/xOnsn3NPHfYy0i3V4L+2Z1Hdl/W79vnG06js0TMd03ao4j4Yjmfhae07CyNSz8fDwrdV3Jv1xbt0UxzMzKcPTPadnZu0cPS6OJvxHjMiuPq7k+X4PMum1uZxhMHNimfDucPR0z8PS0MFZ37m9PKGVAORpta9Q29oupZM5Go6Rp2XfmIibl/GouVcR5I5mOXm/2O2z9rujfmVr+VfRmpxF2mNIrnTtl87lM9DHsnZu2asa7H+z2kRE0T5MO3E+T0xDB/Bj9zCj8MvfubWyP+Bc+5n9TVPgx+5hR+GXv3JS1druZbf36pnwqOc+athmmIu06dU/BtkBCthAnf39+txfjHI/a1No+Cf/AH11f8Xz+0oSQvbb0O9dru3tG025crmaqq6sWiZqmfLMzx3q2Doul6fem7gabh4t2Y7M12LFNEzHo7oXfHbWW8VgasJFqYmYiNdepH28FNFyK9XvAUhIIleFH7pdr8X2vlVtQPoJnaJpWoX/AB2fpmDk3uOz272PRXVx6OZhAnXaKbet6hRbpiminIuU00xHEREVTxDrOyea04vDxhop0m3ERr180JjbM0Vb+vNX2rouTuPcenaPg0zVkZt+mzTx5uZ75+COZ+B9LtuaRjaBoGn6Tg0RRjYdimzRERx3RHHPw+V81No7j1LaW4cTWtEu02s/FmZt1VURVHfE0zExPl5iZSj6feFJgZfisXeun1Yd2eI9mYsTXbn11U+WPg5W1pJMulNm1Reru026KbtyIiuuKYiqqI8nM+fjmfjeXRdVwdb0vH1LScm3lYORT27V639DXHPHMfDD2gIueEzuf2X1b2PtuzXzbwczHyr1PH/vK7lMU/8Alj9KTOrZ+PpWmZefmVxRjY1qq9cqmeOKaY5l88P9or+7Os2FreVMzXmaxYuUx9bR42mKY+COAfRkAGObq3vtraV7Htbk1jG065kUzVapvTMduI7pmOI9cLF82bp59tmm/wCqr+DI9x7Q27ua7Zubg0XA1K5Ypmm1Vk2YrmiJ8sRz5Fn+ZRsH7UNE/NKP4A8nzZunn22ab/qq/gfNm6d/bZp3+qr+D1fMo2D9qGifmlP8D5lGwftQ0T81p/gDy/Nm6efbZp3+qr+B82bp59tmm/6qv4PV8yjYP2oaJ+a0/wAHPzKNg/ahon5pT/AGvutXVLZOs9LNxadpW48HKzcnG7FqzbqntVT2on0epCF9FdV6VbDp0zLmjaWjU1RZrmKqcWmJieJ74nh86gEwfAq237F2zrG4b1HFzNvRjWaufqLffP8A5p/Qh8+iXg/Y9nH6N7VjHoiiK8SLlXHnqqmZmfjBsJGrws9u7t3dqWh6ftzRM7P0/Et13rlyzRzT42qeIjn1RH6UlQGDdDtKzdE6Ubd07Vca5i52PYqpu2bkcVUT26p4n43PW7S83WulO49O0rGuZWbkY8UWrNuOaq57dM8R8TOAEAtm9J9+YG79DzMva+pWsbHzrF27cqojiiim5TMzPf5oiU/XW5XTbt1V1zxTTEzPvMf2JvHR986JVq23r129hReqsdq5bm3PapiJnunv88AyIFPJvW8bHu371XZtWqZrrq454iI5me4FQac+eQ6cfZLM/Mrn8D55Dpx9ksz8yufwBuMW3bWt4e49CwtX0uuuvBzLfjbNVdM0zNM+SeJ8i5AIX+Gt7pOkfiqj9rdTD1zVMXRNGztU1CuaMPDs15F6qKZqmmimJmZ4jy90IK+EtvnRN+7zwNR27eu3cWxg049VVy1Nue1FddXkn7oGokwfBe2DtTcHS23n65oGn5+ZVmXqJvZFmK6uzHHEcz5kPkp/B16wbN2X05t6RuHUL2PnU5V27NFONcuR2auOO+mJjzA3t8ybYH2o6N+bUnzJdgfajo35tSxf54zpt9mcj8xvfynzxnTb7MZP5je/lBlHzJdgfajo35tSfMm2B9qOjfm1LH8Dr/sDUcy1iafn5+VlXZ7NuzY06/XXXPoimKeZbI0nU6NTsxdtYubYon/FWKrNX+mrif0AtW39i7X25nezNC0LA0/KmmaJuY9qKJmJ808eVkgALfrujadr+nV4Gs4dnNwq5iarN6ntUVTHfHMedcAGJ6T042bo+o2M/Stt6ZiZtie1bvWbMU1UT6phlizbi3FjbfsVX87F1G5ZpjtTXi4ld+Ij0z2ImY+Frn54zpt9mMn8xvfyg2+8mr6Zhazpt/T9UxrWXhX47N2zdp5prjnniY9+Iar+eM6bfZjJ/Mb38p88Z02+zOT+Y3v5QZR8yXYH2o6N+bUoHdWMDF0vqZufB0+xRj4ePqF63atURxTRTFUxER6kyvnjOm32ZyPzG9/Khh1N1bE13qDuHVdOrmvDzM27ftVTTMTNNVXMd0gxgAAAAAAAAAAAAAAAAAAAAAAAAAAAAAAAAAAAAAAAAAAAAAAAAAAAAAAAAAAAAAAAAAAAAAAAAAAAAAAAAAGRdP8Abt3dW7tO0m1E9m9cibtUR9Dbjvqn4k7cTHtYmLZxsemKLNmiLdFMeaIjiGiPBZ2r7G03N3JlW+LmTPiMbmPJRH0U/DPd8Dfjk22GY99YzuFM+Db4enp+SbwNrct7085Hm1PMt6fp2TmXombdi3VcmI8s8RzxHrekVOnSJ4t1A7ctvXNe1/P1TK03Pm7l3qrs849XdzPdHk80cQ8unYGt6fn4+Zjadn0X7Fym5RVFivumJ5jzJ9i907bzTRFuMPGkRppvdHqRs5drOu8te19VjW9vYGoxRVbqyLUVV0VRxNNXkqiY9U8roCjVzFVUzTGkdSRjhHERI8JTa/8AQu9v6Tx6OMTVKfGzMR3Rdjuqj4e6fhS3a9667X/2n2BmU2bfbzcL/erHEd/NMe2iPfjlObN5h3jj6Kqp8GrwZ9PynRr4u13S3MdMIWgOzoAbT8Gr3VcP8HvfIasbT8Gr3VcP8HvfIRed/h1/9tXuZsP9rT2pggOGrExDq/7mO5fwKtBpOXq/7mO5fwKtBp0/Yb7pc/d8IRGY+PHYALujk6+lfubbY/F1j5EMpYt0r9zbbH4usfIhlLgeO+83P3T71lt+JHYNYda9yWtpZG0tZv2K8i1i59yqq3RMRNUTYuUd3P3TZ7RXhZ/3X0P8Mq+RLeyCzRfzC3ar5VaxPZMSx4mqabU1R0PLe8JLBjnxO3Mmr7rKpp/6ZW2/4SeTMz4jbVmI83by5n9VCPg6ZTsplVP+Vr6avmiJxt6en3JZ9Ier2Tvnct/S87AxsLs483rXi66qpqmJjmO/1S3Cg10m1z/Z7qDo2dXXNNnx0WrvH1lftZ/Xz8Ccsd8dyh7VZXay/FU9wp0oqj2xz+CSwV6btE708YAFXbiI/Uzee+ttb01TSq9w51Fm3dmqxx2aebVXfT5I9Hd8DDL/AFC3hfiYu7l1aYnzRk1R+qW/fCX2RXq+j2tw6da7WZg09m/TTHfXa9PwT+hFl2LIKsHj8HRdi3TvRwnhHOPR080FiYuW7kxrOi8Xdz69e58breqV8/XZdyf3rblZWRl3PGZV+7friOO1crmqePflRFgptUUeLTENWZmebcfgxZGjWt63rep24nUbtrjBrrn2tNX1UR/mmPJ7yWL55YOXfwcyzlYlyq1kWa4rorpniYmE3OlW8rG9tqWM6maYzbfFrKtx9RciPL70+VznbXLLlN2MdTOtM8J809Hon39qVy+9Ex3OebMQFDSTU+R1P1C31op2ZTgYvsKbtNv2RM1eM77UVzPl48vc2wjPm/8AtZW/wmj/ANNCTCdzvC2sPGH7lTpvW6ZnzzPOWth66q97enlMqeR/Z7v3M/qar8GP3L7f4Ze/c2pk/wBnu/cT+pHHp/pXVzb22MfG0DA0+NPvf7zbi/ctVVe3iJ5+i88cdz3LbNOIwV6z3SmiZqonwp05b3zLtW7cpq0meE8vQkkNIeyuuP8AgdI/1Wv5z2V1x/wOkf6rP874+hJ/1Fr+cPe+P9s+pu8aQ9ldcf8AA6R/qtfzKWXqfWvCxb2VlYek049miblyY8VMxTEczPEVc+R7GR1TOkX7X84+R3x/tn1N6Cni1zcxrNdX0VVEVT78wqISY0nRsD597g+n2pfhN35UvoI+fWv/AE+1L8JufKlftg/Hv9lPxRmZcqfS8DINo7U1Pcuv6bpuJiZHGZeot+N8XPZppqn6Lnjjyd7H3092fERtLRIiOIjBscR//HS6Oilfb+k4uhaJg6VgURbxcOzTZt0xHHdEcf8A3XAAa4686DubdWyK9B2lbseNzrkU5V69ei3TRajvmPJMzzPEd0eTlEXWOm+rdN+o2z8PW7+Jeu5mXYvUzjVTVFPF6mJieYh9AUX/AAmrFzJ619N7NmntXK7lqIj/AOIpBKAAB08db8fFnxlHjpp7cUdqO12eeOePRy7sLjTM2Os06rOPc/o6rQIxYv8A1PjYyJq7Pv8AZnkGaOlF23XXcoouUVV25iK6YnmaZmOYifR3TEu7DNi6Zm4G598ZGZj12rOdqlF/Grq8lyiMe1RNUf8ANTVHwAzNSxcrHy7fjMW/av2+eO1briqOfRzCq1X4N23dV2v08uadr2Fcw8yM+/ci3cmJmaKuzxPdM+UGytW+lWb95r+TL5avqTq/0pzfvFfyZfLYBPnoTuzb2L0i2xj5mu6VYyLWL2K7V3Mt0VUzFU90xM8wgMA+m0bz2vM8RuTRfz61/MvtFVNdFNVFUVU1RzExPMTD5WPqPof0k0/8Ht/JgHtUc3LxsDFuZWdkWcbGtR2q7t6uKKKI9MzPdCs134Q8c9Ft1/gsfLpBfs/ee2IwcmY3Fo9U+Lq7qc23Mz3T5olrLwN/cju/jO98m2hRb0/NuWK79vEyK7NEdqq5TaqmmmPTM8cRCa3gb+5Fd/Gd75NsG9HW5RRct1UXKaa6KommqmqOYmJ8sTDso52RGJhZGTVTNVNm3VcmI8sxEc8foBYJ2Ds+ZmZ2roMzP/8Az7X8p/sDs/7VNB/+X2v5WoJ8JzTee7Z+4P8ATSfPO6b9p+4P9NIN+afhY2nYdrEwbFvHxrUcUWrdPZppjnniIehZ9n65RuXbOn6zbxruLRmW/GRYvfR2++Y4q9fcvAMO6ye5PvD8VZP7Op83H0j6y+5NvD8VZP7Op83AG7fBs6c7V6i5GsY24sjPpzcSKLlm1j3KaKarc8xMzM0zMzE8fG0k2D0H3TVtHqfo2fVVMYt257GyYiOf6uvumfgnifgBK3H8Gzp1a47eDn3vu8yuPk8Mg0jon080qqmrH2xiXa6Z5irJqrvfLmYbGiYmImJ5ifOA8mn6Zgabb8Xp2FjYlHk7Ni1Tbj9EPWAAsO5d4be2xjV39d1jCwqKPLTcux2/gpjvn4kd+pnhQWZsXcLYWLcqrqjj2flUdns+uijy8+uQSmEHemXhFbl2zfqs7iqua7p1yua6vG1/11uZnmezV5/elJ/Y3WLZm8avE6fqtGNnRETVi5kTZrjn0TV3VfBMg2GsG4Nmbb3FRNOt6Hp2bMzzNV2xTNX+ry/pX6mYqpiqmYmmY5iY87kGnNZ8HDp5qNdddnAzMCur/C5NURHvRV2oYZn+Cbo1fanT9zahZ9EXrFFz9U0pLAIi5PgmarTM+xt04NcebxmLXR+qqUcdYwo03VszCi/byIxr1drxtvns19mZjmOfN3J9+EPvKdm9NNQvY9fGoZsTiY3Hliao4qq+COfjh8+ZmZmZmeZkHAAAAAAAAAAAAAAAAAAAAAAAAAAAAAAAAAAAAAAAAAAAAAAAAAAAAAAAAAAAAAAAAAAAAAAAAAAAAAAAAC4bf0rI1zW8HTMOmar+VdptU8ebme+fgjmVvb98FnavsnUs3cmVb5t40eIxuY8tc/RT8Ed3wo7NsfGX4SvETziOHbPJls2+61xSkPt/SsfQ9EwdMw6YpsYtqm1Tx5+I75+Ge9cAcMrrmuqaqp1mViiNI0gGAdbt3XNobHyMjCveK1HJqjHxqo45pqny1Rz6I5Rh+arvj7Y83/y/wWHKtmsTmdmb9uqKY10468fVDWvYuizVuzCbohD81XfH2x5v/l/gfNV3x9seb/5f4JP6jYz9Sn2/Jh+kbfVKbwhF81XfH2x5v/l/gkd0A3nkbt2lco1TIm/qmFdmi7XVxzXTPfTV+uPgR2abMYrLbHfFdUVRrpw16e2GWzjKLtW7ENnuKqYqpmmqImmY4mJ87kVptoP9XtsztXfmo4VFMxi3K/H48/5Ku/j4J5j4GFpUeFBtedS2xja7jUc5GnVdm7MR3zaqn908T8KK7tez+Yd/4Gi5M+FHCe2PnzV/FWu5XJjoG0/Bq91TD/B73yWrG0/Bq91TE/B73yWfO/w6/wDtn3PnD/a09qYIDhqxMQ6v+5juX8Cr/Ug0nL1e9zHcv4Fc/Ug06fsN90u/u+EIjMfHjsAF3RydfSv3Ntsfi+z8iGUsW6V+5ttj8X2fkQylwPHfebn7p96y2/EjsGivCz/uvof4ZV8iW9WivCz/ALr6H+GVfIlJ7Nfilntn3Sw4v7GpGAB2lAOYmYmJieJhN3o5uendOwtOy6q4qy7NPsfIjzxXT3c/DHEoQtr+D1vaNsbq/o/Ou9nTNSmLdUzPdRc+pq/d8KtbVZZOOwU1URrXRxjs6Y/vqbeDvdzuaTylL0Bx5Outyim5bqouUxVRVE01UzHMTE+aUUet/Si/tzLva1oVmq7o12qarlumOZxpn/p/Ulg63bdF61Vbu0U12644qpqjmJj0TCWyjN72VXu6W+MTzjrj59UsF+xTep0l87RI3qv0Mm5Xe1XZlEdqearmn+n73P7keMvGv4eTcx8q1XZv257NdFdPE0z64dey3NcNmVvulirtjpjtQd2zXanSpRZJsvems7OyMq7ot+m37Jt+LuU1RzHHpj0THmljY3r1m3fom3djWmeiWOmqaZ1h9DNNrquadi11zNVdVqiZmfPPEPQ8uk/SrC+80fJh6nAK/GlZo5Iz5v8A7WVH4TR/6aEmEasy1XPhX01xRVNNORbmZ47oj2NEfrSVWLaKfBwv/FT8Wrhfz9sqeT/Z7v3E/qW/av8AdfR/wOz8iFwyf7Pd+5n9TVG3+tOyMXQdOx8jU71F6zjW7ddPsW7PFVNMRPfFPHmROGwd/FWqosUTVpMa6RM9E9TPXXTRVG9OjbY1p83HYf2Wvfml3+U+bjsP7LXvzS7/ACsn0NmH6Ff8Z+Tzvi15Uetstat2/wB1Na/Ar37OphPzcdh/Za9+aXf5Vu3F1o2Rl6BqWLj6nervX8a5aop9i3Y5mqmYjvmn1slnJ8fFymZsV84/LPyfNV+1pPhR621cD+w4/wB7p/UrqGD/AGHH+90/qV0VV40s0ch8+tf+nupfhNz5UvoK+fWv/T3Uvwm58qV92D8e/wBlPxRuZcqfS8D6fbQ/unov4FY/Z0vmCkfovhGb5x9IwsXC2phX7dizRaoueIv1duKaYiJ7qvU6OikxRDzM68dW82f9x2zRjxP/AHWl3q5/80ypVa94Q24Yprx8XV8e3V5PF4dvGj46oif0gmQj/wBTKcfVvCY6aWce9avTZovXK4oqirszRFdzv48n0LW2R0j62bmqivW9Wu0xVHfGVqkzER9zRzDL+hvR/VdhdXqL2s5mLl1U6XcvxVY7UxFVdcUcc1RHfxyCTQAALPG4MWd31bc8Xf8AZsYEah4ziPF+Lm5Nvjnnntcx6OOPOC8AtOja9iavqWtYWLTdi7pWTTi35riIia5t0XPa9/fHFcejvBdgYz093ppu+9Br1fRrWVbxaci5j8ZNFNNU1UcczxEz3d/d3gver/SnN+8V/Jl8tn1J1f6U5v3iv5MvlsAn/tPpDsHK2pot7I2vp9y9dwrNdddVM81VTREzMzz5ZlAB9O9k/wBzNB/AMf8AZ0gxino108pnmnamncx6qv4s9s2qLFm3atU9m3bpimmn0RHdEO4A63KKblE03KaaqZ8sVRzEuwDDur1FFHSfd1NFNNNMaVk90RxH/Dqa88Df3Irv4zvfJttndTsDJ1Tp1ubAwLNV/LydOv2rVqny11TbmIiPflg3gube1bbPTS5p+v4F/AzfZ9274q9TxPZmmjif0SDb4KeVXct416uxb8bdpomqi3zx25iO6OfNyCoNJ2d3dbLtcRPTjSrcfXV6lb4j/wDs5XOxrfWO5x29o7Ztfd6jVP6uQbZHg0C5qV7R8W5rlixj6lVT/X2rFXaopq5n6GfPHHD3gw7rJ7k28PxVk/s6nzcfT7d2i07j2vq2i3L02KNQxbmNVdintTRFdM08xHn8qAPW3YNjpxvK3omNn3M6irEt5HjbluKJ5qmqOOImfrQa/Sy8CCzauaVu2blqiqZvY9PNVMT3cVzx8aJqW3gO/Sndv3/G+TcBJ6mIppimmIiIjiIjzAADR+d4TOx8HOycS/i65F3Hu12a+Ma3Mc01TE8f1nk7mZ9L+qmgdSa9Qp2/bz6KsGKJu+yrVNH0fa444qnn6GQZt7Dxv8PZ/wBEHsPG/wAPZ/0QrgNE+CxYszpu+Ym1bmP9oL9PHZjyRFPEe9Dd/sPG/wAPZ/0Q0p4K/wBLt8/+Isj9VLeQOtu3Rbp7Nuimin0UxxDs6XrlNmzcu3J4oopmqr3oaL+ej2H/AIbXfzW3/wDUBvcY30+3jpu+9t2tb0WjJow7lyu3TGRRFNfNM8T3RM/rZICxb7sWb2zNd8dat3OzgX5jt0xPH9XPpfMh9Ot7f3M178X5H7Op8xQAAAAAAAAAAAAAAAAAAAAAAAAAAAAAAAAAAAAAAAAAAAAAAAAAAAAAAAAAAAAAAAAAAAAAAAAAAAAAAAAVsPGu5mXZxsema716uLdFMeeZniE7dgbdtbV2jp2k2YjtWbcTdqj6q5PfVPxoJ4OXfwM2xl4d2qzk2a4uW7lPlpqjviW4tr+EFuHT+xa1zGx9TsxxE1xHirnHvx3TPwKntTlmNzG3RRhtJpp4zGukzPR5va3cHet2pma0qxrHa/WzaGt9ijIyq9MyKvqMuninn0RXHd+pmG5dy4Wj7T1DW6Mi1ex8ezVXRVbriqKquPaxEx5e/hzK9l2KsXItXbcxVM6RrHPsS9N2iqN6JRp8Jjc39L71p0qxXzjaXR4uYie6bs99Xxd0NPvRqGXez87Iy8mqa79+5VcrqnzzM8y87tmXYOnBYajD0/lj29PtV+7cm5XNU9IA3WMbK6AbnjbnUDGt36+zh6hHsW7zPERM/QTPvT+trV3tXKrVyi5bqmmuiYqpqjyxMeSWtjMLTi7FdivlVGj7t1zRVFUdD6IjEum+6bO49h6drF+9boq8X2MmqqriKblPdVzM/H8K0bo6xbP0Dt2/6Q9n5NPMeKw47ff6Jq8kfG4hTluKrvVWLdE1VUzpOkdSwzdoimKpngznV9PsarpeXgZdMVWMm1VariY57pjhArdGj39v7h1DSsqJi7i3qrczPniJ7p+GOJbf3P4Q+sZfbt7e0+xgW58l29/W3OPe8kfpaa1rVs7W9TvahquRXk5l6Ymu5V5Z4jjzOjbKZTjsu35xGkU1dGus6+7l50Vjb9u7pu84eFtTwafdUxPwa98lqtkvT3dl/Ze5bWsYuNbyrlu3Xb8XcqmmJiqOPLCx5pYrxGDu2bca1VUzEepqWaopuRVPRKd4jN88jqn2v4X5ev8AgfPI6p9r+F+Xr/g5b9Uc0/Tj+UfNM9/Wetuvq97mO5fwK5+pBlubdXXjUdw7c1DSLui4li3mWZs1XKbtUzTE+eI4aZXnZbLMRl2Hrt4mNJmdecT0eZHYy9RdqiaABaGmnX0r9zbbH4usfIhlLFulfubbY/F1j5EMpcDx33m5+6festvxI7Borws/7r6H+GVfIlvVorws/wC62h/hlXyJSezX4pZ7Z90sOL+xqRgAdpQA5iZiYmJ4mPJMOAEsegPUm3uLS7eh6veiNYxaOLdVU/8AHtx5J9+G43zz0/NyNOzbOXhXq7OTZqiu3coniaZhLTo91aw9249rTtXrt4uuURxxM8U3/XT6/U5jtPs5Vh6pxeFjWieMx1efs93Yl8Hi4qjcr5tsAKOkRFrwmNxaFqWsWNN0zFsXNRxaucnNojv8n/D5jy+vlsXrx1Oo2xgV6No92J1nIo4rrpnn2PRPn+6nzIm111XK6q7lU1V1TzVVVPMzPpl0HZDI64qjH3tYj8sdfnnzdXWjMdiI07lT6XUB0VFPoVpP0qwvvNHyYep5dJ+leH95o+TD1Pz5c8aVnjkpzYtVXPGVWrc1889qaY5+NUB866vVPI/s937mf1Pnjc/4lXvy+h9//gXPuZ/U+eN3/i1+/Loewf8An/0/+yLzL8vp+Do3z4JlFNW4NfmqmmZjFt8TMeT28tDN9+CV9P8AcH4Nb+XKy7Tfhd7sj3w1MJ9tSkt4q3/3dHxHirf/AHdHxO44vrKfIiIiIiIiI7oiAHgPn1uD6fal+E3PlS+gr597g+n2pfhN35cr/sH49/sp+KMzLlT6VvfTnY0RGydvxEcRGn48REfe6XzGfTrY/wDcvQPxfj/s6XR0UvQAChGLajOqy+zHj6rcWu1/liZnj45VwB58rKpsZGHaqmIqyLs26Y9PFFVX/S9DTm59x1Z3hJ7M29i5FUWdOxcrLybcR3VV3LFdNMT70d/w+sG42v6fd+r/APDFP/qpbAa/p936v/wzT/6qQbAYB03/AL4dRvxzb/8ASWGfsA6b/wB8Oo345t/+ksAz9bdv6Fpm3sGrD0TCtYeLVcqvTbtc8TXV5Z+FcgHk1f6U5v3iv5Mvls+pWrfSrN+81/Jl8tQE4tr+EF08wdtaTiZWrZNF/HxLVq5T7CuzxVTRET3xTx5YQdAT1+eM6bebWMmZ/Arv8rbeNeoyMe1et8zbuURXTz6JjmHyvfUfQ/pJp/4Pb+TAPasW+tyWNobS1PXsqxdyLODb8ZVatTEVVd8RxHPd519a78Ib3F91/gsfLpBgmxPCOx94760jb+Ft27jUZ1yqiq/dyYqmniiao4pin1elv987vB8ybGJ1k2xfy71uxYov19q5cqimmn+rrjvmfIn1O59Ajy65pce/l2/4gu4ss7s27Hl1/SY9/Mt/xdZ3htqPLuLRo/8AjrX8wL4Mayt+7RxaO1kbo0OiPXnWv5lpv9Xun1n6Pdukz9xe7f6uQZ2PFouq4Wt6VjalpV+nJwcmnt2rtMTEV0+mOe97QEIfDK91yx+LLPy7iZm5dYx9vbe1PWc2m5XjYGNcyblNqImuqmimapimJmI5nju5mEAOue/cXqNvWnWsHDv4dinFox4t3piauaZqnnu7vqga8S28B36U7t+/43ybiJKW3gO/Sndv3/G+TcBJ4AGmc7wb9hZubkZV+3qc3r9yq7XMZfEdqqeZ83plmHTfplt/p5Ob/s5GXTGZ2fGxfu+M57PPHHd3eWWbAAANG+Ct9Lt8/wDiLI/VS3k0b4K/0u3z/wCIsj9VLeQOl+1TfsXLVfPYrpmmePRMcNLT4M3T2Z/4Oqfnf/2bsAY/sXaOmbJ2/b0bRPHRhW66rlMXq+3VE1eXv4hkAAsu9v7ma/8Ai/I/Z1PmK+ne9v7ma9+AZH7Op8xAAAAAAAAAAAAAAAAAAAAAAAAAAAAAAAAAAAAAAAAAAAAAAAAAAAAAAAAAAAAAAAAAAAAAAAAAAAAAAAAAAAHopzMmjFrxqMi9TjVzzVaiuYoqn1x5HnHkxE8wAegAAAD0RmZNOLOLTkXoxpntTaiuexM+ns+R5weRERyAB6AAAAAAAAJtdMdc0mz0725au6pg27lGBZoqpqyKImmYpiJiYmWT/wC0GjfZfTvzmj+L5/Ci3tiLd25Vc7tMazM8uv0pGnMJpiI3X0B/2g0b7L6d+c0fxaS8KfU8DO2zotGFm42RXTl1VTTZu01zEdie+eJRrGzl2yFGBxNGJi7M7vRp5u183cdNyiaN3mALi0AAB3tXK7Nym5arqouUzzTVTPExPpiXQOY3z0z68ZGn0WtP3fTXlY1PFNGZRHNyiP8ANH1X62zeoPVvRdD2lRn6Jm42fm5kTTi0W64q7M+eqqPLER60ORWMTsngL+Ii/EbvHWYjlPy9DcoxtymnderU87J1PPv5uddqvZN+ua7ldU8zMy8oLNTTFMaRyafMAejZuP1w3vYsW7NvPxuxbpiinnFomeIjj0Knzdd9f4/F/NKP4NXCMnJcvnj3Cn+MM3fF3ypbR+brvr/H4v5pR/A+brvr/H4v5pR/Bq4PoXL/ANCn+MHfF3ypbOv9cN737Ndq5n43YrpmmeMWiO6fgaymZmZme+Z73A2sNgsPhde4URTrz0jR8V3Kq/GnUbF6M9QMbYGpajk5mDey6MqzTbiLVcUzTMTzz3tdD3F4W3jLNVi9GtM83lFc0VRVTzSc+eQ0j7A5/wCVocfPIaT9gc/8tQjIIH6o5X5E/wAp+bZ7+vdaTfzyGk/YDP8Ay1B88hpP2Bz/AMtQjIH1RyvyJ/lPzO/r3Wk3PhIaTxPGg5/P32hG3UsiMvUcrJppmmm9druRE+bmZn97zCSy7J8Jls1ThqdN7nxmeXaxXb9d3TfnkJO6R4VE6XoGnafa2pF27i41uxNyrO7MVdmmKeYjsTx5PSjEJRhSYyfCz1iqP912vp9uf/8AZk11/qiFg1Hwot85FU+xMbRsSn0U49Vcx8NVUtDANp6p196j6hPfuCrGp9GNj27f6ezyt+n9aOoWDl+yLe6dQu1c8zRfqi7RP/LVEx8TXgCRG3fCp3PhxTRrmk6dqVPPfXbmqxXx8HMfoYPs7qpXpfWS9vrWcS5l1Xqr012LVcUzEV0zTERM93dHHxNXgJf/AD2WifazqX5ehqjqZ101PXd5Y+vbOrzNCuUYMYVzmqiuquntzX390xxzLS4DY/zbuo/21Zv+i3/K8GndV98ablZ+Thbiy7V/Ouxeya4ponxlcUxT2p5p8vERHwMHAbNwuuG/6MzHrzNy517FpuUzdtRFFM10RPfTzFPdzHMN5fPZaH9rOpfl6EQAEuM/wrNGyMHJs29t6jTXct1UU1Teo4iZjjlEcAAAE/8AR+uHTq1pGDbu7mx6LlNi3TVTNm7zTMUxzE+0QAAfQr5ufTb7acb8je/kYP1s6v7G13phr2laPrtrLzsux4u1botXI5ntRP1VMehC0AAAAAABNno91g2JovTHbum6ruGxjZ2Li02r1mq1cmaaome7mKZhmPzc+m320435G9/I+eoCcXVDrJsLVune5NO03cNjIzMvT71i1bptXImqqqiYiO+mI86DoANzdAOr+D0wxNZsZ+l5OdGfXarpmzcpp7PYiqOJ5+6aZATA+ey0P7WtS/L0Hz2Wh/a1qX5ehD8BL/57LRPtZ1L8vQfPZaH9rOpfl6EQAEwPnstD+1rUvy9DifCy0TieNtalE+bm9QiAA3/0g67absTG3BazNHzMudT1O5n0TauU09iKoiOzPPn7mwfnstD+1rUvy9CH4CX/AM9lof2tal+XoPnstE+1nUvy9CIACX/z2Wh/azqX5ehz89lof2tal+XoQ/ASx1/wpdG1LQtRwbW3NRouZWNcsU1VXqOKZqpmnmfjROAAAAAAAAAAAAAAAAAAAAAAAAAAAAAAAAAAAAAAAAAAAAAAAAAAAAAAAAAAAAAAAAAAAAAAAAAAAAAAAAAAAAAAAAAAAAAAAAAAAAAAAAAAAAAAAAAAAAAAAAAAAAAAAAAAAAAAAAAAAAAAAAAAAAAAAAAAAAAAAAAAAAAAAAAAAAAAAAAAAAAAAAAAAAAAAAAAAAAAAAAAAAAAAAAAAAAAAAAAAAAAAAAAAAAAAAAAAAAAAAAAAAAAAAAAAAAAAAAAAAAAAAAAAAAAAAAAAAAAAAAAAAAAAAAAAAAAAAAAAAAAAAAAAAAAAAAAAAAAAAAAAAAAAAAAAAAAAAAAAAAAAAAAAAAAAAAAAAAAAAAAAAAAAAAAAAAAAAAAAAAAAAAAAAAAAAAAAAAAAAAAAAAAAAAAAAAAAAAAAAAAAAAAAAAAAAAAAAAAAAAAAAAAAAAAAAAAAAAAAAAAAAAAAAAAAAAAAAAAAAAAAAAAAAAAAAAAAAAAAAAAAAAAAAAAAAAAAAAAAAAAAAAAAAAAAAAAAAAAAAAAAAAAAAAAAAAAAAAAAAAAAAAAAAAAAAAAAAAAAAAAAAAAAAAAAAAAAAAAAAAAAAAAAAAAAAAAAAAAAAAAAAAAAAAAAAAAAAAAAAAAAAAAAAAAAAAAAAAAAAAAAAAAAAAAAAAAAAAAAAAAAAAAAAAAAAAAAAAAAAAAAAAAAAAAAAAAAAAAAAAAAAAAAAAAAAAAAAAAAAAAAAAAAAAAAAAAAAAAAAAAAAAAAAAAAAAAAAAAAAAAAAAAAAAAAAAAAAAAAAAAAAAAAAAAAAAAAAAAAAAAAAAAAAAAAAAAAAAAAAAAAAAAAAAAAAAAAAAAAAAAAAAAAAAAAAAAAAAAAAAAAAAAAAAAAAAAAAAAAAAAAAAAAAAAAAAAAAAAAAAAAAAAAAAAAAAAAAAAAAAAAAAAAAAAAAAAAAAAAAAAAAAAAAAAAAAAAAAAAAAAAAAAAAAAAAAAAAAAAAAAAAAAAAAAAAAAAAAAAAAAAAAAAAAAAAAAAAAAAAAAAAAAAAAAAAAAAAAAAAAAAAAAAAAAAAAAAAAAAAAAAAAAAAAAAAAAAAAAAAAAAAAAAAAAAAAAAAAAAAAAAAAAAAAAAAAAAAAAAAAAAAAAAAAAAAAAAAAAAAAAAAAAAAAAAAAAAAAAAAAAAAAAAAAAAAAAAAAAAAAAAAAAAAAAAAAAAAAAAAAAAAAAAAAAAAAAAAAAAAAAAAAAAAAAAAAAAAAAAAAAAAAAAAAAAAAAAAAAAAAAAAAAAAAAAAAAAAAAAAAAAAAAAAAAAAAAAAAAAAAAAAAAAAAAAAAAAAAAAAAAAAAAAAAAAAAAAAAAAAAAAAAAAAAAAAAAAAAAAAAAAAAAAAAAAAAAAAAAAAAAAAAAAAAAAAAAAAAAAAAAAAAAAAAAAAAAAAAAAAAAAAAAAAAAAAAAAAAAAAAAAAAAAAAAAAAAAAAAAAAAAAAAAAAAAAAAAAAAAAAAAAAAAAAAAAAAAAAAAAAAAAAAAAAAAAAAAAAAAAAAAAAAAAAAAAAAAAAAAAAAAAAAAAAAAAAAAAAAAAAAAAAAAAAAAAAAAAAAAAAAAAAAAAAAAAAAAAAAAAAAAAAAAAAAAAAAAAAAAAAAAAAAAAAAAAAAAAAAAAAAAAAAAAAAAAAAAAAAAAAAAAAAAAAAAAAAAAAAAAAAAAAAAAAAAAAAAAAAAAAAAAAAAAAAAAAAAAAAAAAAAAAAAAAAAAAAAAAAAAAAAAAAAAAAAAAAAAAAAAAAAAAAAAAAAAAAAAAAAAAAAAAAAAAAAAAAAAAAAAAAAAAAAAAAAAAAAAAAAAAAAAAAAAAAAAAAAAAAAAAAAAAAAAAAAAAAAAAAAAAAAAAAAAAAAAAAAAAAAAAAAAAAAAAAAAAAAAAAAAAAAAAAAAAAAAAAAAAAAAAAAAAAAAAAAAAAAAAAAAAAAAAAAAAAAAAAAAAAAAAAAAAAAAAAAAAAAAAAAAAAAAAAAAAAAAAAAAAAAAAAAAAAAAAAAAAAAAAAAAAAAAAAAAAAAAAAAAAAAAAAAAAAAAAAAAAAAAAAAAAAAAAAAAAAAAAAAAAAAAAAAAAAAAAAAAAAAAAAAAAAAAAAAAAAAAAAAAAAAAAAAAAAAAAAAAAAAAAAAAAAAAAAAAAAAAAAAAAAAAAAAAAAAAAAAAAAAAAAAAAAAAAAAAAAAAAAAAAAAAAAAAAAAAAAAAAAAAAAAAAAAAAAAAAAAAAAAAAAAAAAAAAAAAAAAAAAAAAAAAAAAAAAAAAAAAAAAAAAAAAAAAAAAAAAAAAAAAAAAAAAAAAAAAAAAAAAAAAAAAAAAAAAAAAAAAAAAAAAAAAAAAAAAAAAAAAAAAAAAAAAAAAAAAAAAAAAAAAAAAAAAAAAAAAAAAAAAAAAAAAAAAAAAAAAAAAAAAAAAAAAAAAAAAAAAAAAAAAAAAAAAAAAAAAAAAAAAAAAAAAAAAAAAAAAAAAAAAAAAAAAAAAAAAAAAAAAAAAAAAAAAAAAAAAAAAAAAAAAAAAAAAAAAAAAAAAAAAAAAAAAAAAAAAAAAAAAAAAAAAAAAAAAAAAAAAAAAAAAAAAAAAAAAAAAAAAAAAAAAAAAAAAAAAAAAAAAAAAAAAAAAAAAAAAAAAAAAAAAAAAAAAAAAAAAAAAAAAAAAAAAAAAAAAAAAAAAAAAAAAAAAAAAAAAAAAAAAAAAAAAAAAAAAAAAAAAAAAAAAAAAAAAAAAAAAAAAAAAAAAAAAAAAAAAAAAAAAAAAAAAAAAAAAAAAAAAAAAAAAAAAAAAAAAAAAAAAAAAAAAAAAAAAAAAAAAAAAAAAAAAAAAAAAAAAAAAAAAAAAAAAAAAAAAAAAAAAAAAAAAAAAAAAAAAAAAAAAAAAAAAAAAAAAAAAAAAAAAAAAAAH/9k=;" vertex="1" parent="1">
          <mxGeometry x="20" y="245.77" width="165" height="123.75" as="geometry" />
        </mxCell>
        <mxCell id="uqpLzge1cSQytIb9NcQr-3" value="" style="endArrow=classic;startArrow=classic;html=1;rounded=0;" edge="1" parent="1">
          <mxGeometry width="50" height="50" relative="1" as="geometry">
            <mxPoint x="210" y="310" as="sourcePoint" />
            <mxPoint x="300" y="310" as="targetPoint" />
          </mxGeometry>
        </mxCell>
        <mxCell id="uqpLzge1cSQytIb9NcQr-4" value="" style="dashed=0;outlineConnect=0;html=1;align=center;labelPosition=center;verticalLabelPosition=bottom;verticalAlign=top;shape=mxgraph.weblogos.chrome" vertex="1" parent="1">
          <mxGeometry x="740" y="30" width="74.8" height="75.4" as="geometry" />
        </mxCell>
        <mxCell id="uqpLzge1cSQytIb9NcQr-5" value="浏览器" style="text;html=1;align=center;verticalAlign=middle;resizable=0;points=[];autosize=1;strokeColor=none;fillColor=none;" vertex="1" parent="1">
          <mxGeometry x="747.4" y="105.4" width="60" height="30" as="geometry" />
        </mxCell>
        <mxCell id="uqpLzge1cSQytIb9NcQr-6" value="" style="dashed=0;outlineConnect=0;html=1;align=center;labelPosition=center;verticalLabelPosition=bottom;verticalAlign=top;shape=mxgraph.weblogos.github" vertex="1" parent="1">
          <mxGeometry x="747.4" y="171.25" width="75" height="75" as="geometry" />
        </mxCell>
        <mxCell id="uqpLzge1cSQytIb9NcQr-7" value="GitHub" style="text;html=1;align=center;verticalAlign=middle;resizable=0;points=[];autosize=1;strokeColor=none;fillColor=none;" vertex="1" parent="1">
          <mxGeometry x="754.9" y="246.25" width="60" height="30" as="geometry" />
        </mxCell>
        <mxCell id="uqpLzge1cSQytIb9NcQr-8" value="" style="image;aspect=fixed;html=1;points=[];align=center;fontSize=12;image=img/lib/azure2/databases/SQL_Managed_Instance.svg;" vertex="1" parent="1">
          <mxGeometry x="758.43" y="310" width="60.45" height="59.52" as="geometry" />
        </mxCell>
        <mxCell id="uqpLzge1cSQytIb9NcQr-9" value="数据库" style="text;html=1;align=center;verticalAlign=middle;resizable=0;points=[];autosize=1;strokeColor=none;fillColor=none;" vertex="1" parent="1">
          <mxGeometry x="750.93" y="370" width="60" height="30" as="geometry" />
        </mxCell>
        <mxCell id="uqpLzge1cSQytIb9NcQr-10" value="" style="image;html=1;image=img/lib/clip_art/general/Full_Folder_128x128.png" vertex="1" parent="1">
          <mxGeometry x="742.4" y="430" width="80" height="80" as="geometry" />
        </mxCell>
        <mxCell id="uqpLzge1cSQytIb9NcQr-11" value="文件操作" style="text;html=1;align=center;verticalAlign=middle;resizable=0;points=[];autosize=1;strokeColor=none;fillColor=none;" vertex="1" parent="1">
          <mxGeometry x="753.43" y="500" width="70" height="30" as="geometry" />
        </mxCell>
        <mxCell id="uqpLzge1cSQytIb9NcQr-12" value="" style="endArrow=classic;startArrow=classic;html=1;rounded=0;" edge="1" parent="1">
          <mxGeometry width="50" height="50" relative="1" as="geometry">
            <mxPoint x="560" y="208" as="sourcePoint" />
            <mxPoint x="730" y="90" as="targetPoint" />
          </mxGeometry>
        </mxCell>
        <mxCell id="uqpLzge1cSQytIb9NcQr-13" value="" style="endArrow=classic;startArrow=classic;html=1;rounded=0;" edge="1" parent="1">
          <mxGeometry width="50" height="50" relative="1" as="geometry">
            <mxPoint x="560" y="253.4" as="sourcePoint" />
            <mxPoint x="740" y="220" as="targetPoint" />
          </mxGeometry>
        </mxCell>
        <mxCell id="uqpLzge1cSQytIb9NcQr-14" value="" style="endArrow=classic;startArrow=classic;html=1;rounded=0;" edge="1" parent="1">
          <mxGeometry width="50" height="50" relative="1" as="geometry">
            <mxPoint x="560" y="310" as="sourcePoint" />
            <mxPoint x="730" y="350" as="targetPoint" />
          </mxGeometry>
        </mxCell>
        <mxCell id="uqpLzge1cSQytIb9NcQr-15" value="" style="endArrow=classic;startArrow=classic;html=1;rounded=0;" edge="1" parent="1">
          <mxGeometry width="50" height="50" relative="1" as="geometry">
            <mxPoint x="560" y="390" as="sourcePoint" />
            <mxPoint x="730" y="460" as="targetPoint" />
          </mxGeometry>
        </mxCell>
      </root>
    </mxGraphModel>
  </diagram>
</mxfile>
